<svg id="svg" version="1.1" xmlns="http://www.w3.org/2000/svg" xmlns:xlink="http://www.w3.org/1999/xlink" width="400" height="383.617747440273" viewBox="0, 0, 400,383.617747440273"><g id="svgg"><path id="path0" d="M92.514 146.065 C 92.123 146.537,92.149 146.641,92.659 146.641 C 93.002 146.641,93.282 146.382,93.282 146.065 C 93.282 145.749,93.217 145.489,93.137 145.489 C 93.058 145.489,92.777 145.749,92.514 146.065 M93.666 146.101 C 93.666 146.438,93.313 146.805,92.883 146.918 L 92.099 147.123 92.883 147.671 C 93.313 147.973,93.666 148.558,93.666 148.970 C 93.666 149.382,94.012 150.015,94.434 150.377 C 94.856 150.739,95.202 151.160,95.202 151.313 C 95.202 151.777,96.986 153.551,97.453 153.551 C 97.693 153.551,97.889 153.747,97.889 153.987 C 97.889 154.885,99.708 156.238,100.915 156.238 C 101.315 156.238,101.728 156.581,101.839 157.006 C 101.949 157.428,102.315 157.774,102.651 157.774 C 102.988 157.774,103.263 158.033,103.263 158.349 C 103.263 158.666,103.538 158.925,103.875 158.925 C 104.211 158.925,104.577 159.271,104.687 159.693 C 104.798 160.115,105.127 160.461,105.419 160.461 C 105.711 160.461,105.950 160.701,105.950 160.994 C 105.950 161.299,106.524 161.635,107.294 161.779 C 108.098 161.930,108.637 162.255,108.637 162.589 C 108.637 162.897,108.983 163.148,109.405 163.148 C 109.827 163.148,110.178 163.364,110.185 163.628 C 110.202 164.316,112.016 165.543,112.539 165.220 C 112.810 165.053,112.874 165.118,112.705 165.392 C 112.531 165.672,112.721 165.835,113.221 165.835 C 113.675 165.835,114.012 166.085,114.012 166.423 C 114.012 166.746,114.314 167.122,114.683 167.258 C 115.053 167.393,115.493 167.733,115.662 168.013 C 115.831 168.293,116.467 168.522,117.076 168.522 C 117.845 168.522,118.257 168.756,118.426 169.290 C 118.597 169.828,119.007 170.058,119.796 170.058 C 120.525 170.058,120.921 170.254,120.921 170.616 C 120.921 170.950,121.461 171.276,122.265 171.426 C 123.034 171.571,123.608 171.906,123.608 172.212 C 123.608 172.562,124.055 172.745,124.911 172.745 C 126.043 172.745,126.679 173.240,126.679 174.120 C 126.679 174.208,124.612 174.280,122.085 174.280 C 118.159 174.280,117.523 174.196,117.711 173.704 C 117.839 173.372,117.712 173.116,117.412 173.099 C 117.125 173.083,116.545 173.002,116.123 172.920 C 114.475 172.598,114.012 173.070,114.012 175.074 C 114.012 176.711,114.115 176.967,114.779 176.967 C 115.206 176.967,115.547 177.223,115.547 177.543 C 115.547 177.860,115.786 178.119,116.078 178.119 C 116.370 178.119,116.699 178.464,116.810 178.887 C 116.920 179.309,117.286 179.655,117.622 179.655 C 117.959 179.655,118.234 179.914,118.234 180.230 C 118.234 180.547,118.364 180.786,118.522 180.761 C 119.310 180.636,119.770 180.861,119.770 181.371 C 119.770 181.682,120.289 182.070,120.923 182.235 C 121.557 182.399,122.033 182.647,121.979 182.787 C 121.851 183.118,126.775 186.404,127.192 186.265 C 127.369 186.207,127.605 186.509,127.717 186.937 C 127.829 187.365,128.096 187.716,128.311 187.716 C 128.525 187.716,128.980 188.018,129.322 188.388 C 129.663 188.757,130.288 189.118,130.710 189.190 C 131.132 189.262,131.751 189.564,132.084 189.862 C 132.417 190.160,133.045 190.403,133.479 190.403 C 133.945 190.403,134.350 190.717,134.468 191.171 C 134.615 191.732,134.992 191.939,135.869 191.939 C 136.581 191.939,137.158 192.173,137.289 192.514 C 137.417 192.848,137.992 193.090,138.657 193.090 C 139.480 193.090,139.860 193.306,140.004 193.858 C 140.167 194.483,140.528 194.626,141.941 194.626 C 143.110 194.626,143.828 194.832,144.139 195.258 C 144.544 195.811,145.065 195.952,147.340 196.123 C 147.743 196.153,147.734 196.275,147.297 196.712 C 146.868 197.141,145.200 197.290,139.802 197.384 C 135.234 197.463,132.707 197.656,132.418 197.946 C 131.914 198.450,132.306 200.126,132.849 199.791 C 133.045 199.670,133.205 199.926,133.205 200.361 C 133.205 200.796,133.335 201.164,133.493 201.180 C 134.858 201.315,135.768 201.639,136.127 202.118 C 136.361 202.431,136.967 202.687,137.474 202.687 C 137.981 202.687,138.611 203.033,138.874 203.455 C 139.146 203.889,139.770 204.223,140.310 204.223 C 140.905 204.223,141.267 204.441,141.267 204.798 C 141.267 205.118,141.608 205.374,142.035 205.374 C 143.258 205.374,143.317 205.393,144.575 206.170 C 145.233 206.577,146.293 206.910,146.930 206.910 C 147.764 206.910,148.143 207.124,148.288 207.678 C 148.442 208.266,148.811 208.445,149.868 208.445 C 150.767 208.445,151.214 208.612,151.152 208.925 C 151.084 209.264,151.844 209.439,153.739 209.521 C 155.727 209.606,156.622 209.824,157.194 210.361 C 158.277 211.378,164.479 211.307,165.237 210.269 C 165.586 209.791,166.214 209.610,167.413 209.641 C 168.340 209.666,168.796 209.765,168.426 209.862 C 168.057 209.958,167.754 210.256,167.754 210.523 C 167.754 210.790,167.322 211.206,166.795 211.446 C 166.267 211.687,165.835 212.157,165.835 212.490 C 165.835 212.824,165.671 212.996,165.470 212.872 C 165.270 212.748,164.993 213.250,164.854 213.988 C 164.712 214.744,164.322 215.418,163.959 215.533 C 163.605 215.646,163.278 216.194,163.231 216.752 C 163.185 217.309,162.897 217.958,162.591 218.192 C 162.285 218.426,161.953 219.395,161.853 220.345 C 161.753 221.296,161.658 222.197,161.642 222.349 C 161.626 222.501,161.353 222.525,161.036 222.404 C 160.619 222.244,160.461 222.447,160.461 223.142 C 160.461 224.327,161.051 224.568,163.947 224.568 C 165.749 224.568,166.219 224.444,166.219 223.970 C 166.219 223.641,166.361 223.459,166.534 223.566 C 166.708 223.673,167.269 223.543,167.782 223.277 C 168.295 223.011,168.887 222.761,169.098 222.721 C 169.309 222.681,169.490 222.433,169.499 222.169 C 169.509 221.905,169.704 221.725,169.933 221.770 C 170.163 221.814,170.657 221.512,171.031 221.098 C 171.406 220.684,171.955 220.345,172.251 220.345 C 172.547 220.345,172.689 220.181,172.565 219.981 C 172.441 219.780,172.690 219.429,173.118 219.200 C 173.546 218.970,173.896 218.530,173.896 218.221 C 173.896 217.911,174.141 217.658,174.440 217.658 C 174.739 217.658,175.077 217.442,175.191 217.179 C 175.305 216.915,175.362 217.591,175.319 218.682 C 175.259 220.221,175.134 220.576,174.761 220.266 C 174.281 219.868,174.203 220.398,174.150 224.450 C 174.141 225.123,174.003 225.594,173.842 225.495 C 173.342 225.185,172.745 226.752,172.745 228.374 C 172.745 229.669,172.889 229.962,173.608 230.132 C 175.147 230.495,178.594 230.094,179.039 229.500 C 179.272 229.189,179.765 228.822,180.134 228.683 C 180.504 228.544,180.806 228.166,180.806 227.843 C 180.806 227.499,181.146 227.255,181.625 227.255 C 182.515 227.255,185.029 224.840,185.029 223.984 C 185.029 223.693,185.296 223.305,185.623 223.122 C 185.950 222.939,186.246 222.408,186.281 221.942 C 186.322 221.407,186.534 221.167,186.859 221.291 C 187.141 221.400,187.266 221.318,187.137 221.109 C 187.008 220.900,187.086 220.729,187.309 220.729 C 187.533 220.729,187.716 220.312,187.716 219.802 C 187.716 219.291,187.917 218.807,188.162 218.725 C 188.608 218.577,188.768 218.019,188.940 216.027 C 188.990 215.446,189.177 214.971,189.356 214.971 C 189.534 214.971,189.585 214.817,189.468 214.628 C 189.351 214.439,189.514 214.185,189.829 214.064 C 190.312 213.879,190.403 214.386,190.403 217.255 C 190.403 220.747,190.179 222.025,189.626 221.683 C 189.110 221.365,189.152 235.694,189.668 236.316 C 190.273 237.044,192.668 237.015,192.951 236.276 C 193.073 235.960,193.401 235.701,193.681 235.701 C 193.961 235.701,194.300 235.355,194.434 234.933 C 194.568 234.511,194.925 234.165,195.227 234.165 C 195.530 234.165,195.777 233.918,195.777 233.615 C 195.777 233.313,196.123 232.956,196.545 232.821 C 196.967 232.687,197.313 232.330,197.313 232.028 C 197.313 231.725,197.572 231.478,197.889 231.478 C 198.205 231.478,198.464 231.219,198.464 230.902 C 198.464 230.585,198.810 229.981,199.232 229.559 C 199.655 229.136,200.000 228.445,200.000 228.023 C 200.000 227.597,200.256 227.255,200.576 227.255 C 200.934 227.255,201.152 226.893,201.152 226.296 C 201.152 225.768,201.162 225.206,201.175 225.048 C 201.187 224.890,201.533 224.636,201.942 224.485 C 202.450 224.297,202.687 223.847,202.687 223.073 C 202.687 222.297,202.900 221.896,203.358 221.808 C 203.727 221.737,204.047 221.422,204.068 221.108 C 204.180 219.430,204.270 219.194,204.798 219.194 C 205.278 219.194,205.374 218.426,205.374 214.587 C 205.374 210.749,205.278 209.981,204.798 209.981 C 204.482 209.981,204.222 209.679,204.222 209.309 C 204.222 208.940,203.794 208.140,203.271 207.532 C 202.748 206.923,202.413 206.276,202.526 206.092 C 202.640 205.908,202.414 205.758,202.026 205.758 C 201.543 205.758,201.293 205.444,201.237 204.764 C 201.112 203.258,200.873 203.076,198.922 203.010 C 197.576 202.964,197.428 202.910,198.336 202.796 C 199.848 202.606,200.219 201.755,199.224 200.759 C 198.806 200.342,198.464 199.648,198.464 199.217 C 198.464 198.254,196.969 196.161,196.281 196.161 C 196.004 196.161,195.777 195.897,195.777 195.573 C 195.777 195.250,195.389 194.829,194.914 194.638 C 194.319 194.399,194.246 194.283,194.681 194.266 C 195.604 194.231,196.345 191.555,195.431 191.555 C 195.241 191.555,194.897 191.017,194.668 190.360 C 194.380 189.532,194.073 189.234,193.671 189.388 C 193.227 189.559,193.090 189.321,193.090 188.373 C 193.090 187.449,192.750 186.822,191.747 185.902 C 191.008 185.224,190.403 184.491,190.403 184.273 C 190.403 184.055,190.058 183.877,189.635 183.877 C 189.196 183.877,188.868 183.621,188.868 183.279 C 188.868 182.950,188.713 182.776,188.524 182.893 C 188.335 183.009,188.081 182.847,187.960 182.531 C 187.826 182.183,187.961 181.958,188.304 181.958 C 188.716 181.958,188.868 181.494,188.868 180.230 C 188.868 178.951,188.718 178.503,188.292 178.503 C 187.909 178.503,187.716 178.121,187.716 177.365 C 187.716 176.620,187.451 176.085,186.948 175.816 C 186.526 175.590,186.180 175.017,186.180 174.544 C 186.180 174.070,185.828 173.381,185.396 173.012 C 184.965 172.642,184.716 172.172,184.843 171.967 C 184.970 171.761,184.718 171.593,184.284 171.593 C 183.849 171.593,183.493 171.402,183.493 171.167 C 183.493 170.257,181.755 168.919,180.563 168.913 C 179.686 168.908,179.306 168.698,179.159 168.138 C 178.999 167.525,178.623 167.365,177.291 167.343 C 175.739 167.318,173.401 166.691,174.632 166.630 C 175.852 166.569,174.660 166.217,172.528 166.008 C 171.145 165.872,170.131 165.568,169.944 165.234 C 169.723 164.839,168.891 164.683,167.012 164.683 C 164.712 164.683,164.364 164.589,164.188 163.916 C 164.023 163.283,163.659 163.146,162.128 163.136 C 161.105 163.129,159.933 162.870,159.524 162.560 C 159.101 162.241,157.955 161.996,156.879 161.996 C 155.544 161.996,154.839 161.805,154.508 161.353 C 154.186 160.912,153.295 160.655,151.683 160.539 C 150.019 160.418,149.328 160.213,149.328 159.839 C 149.328 159.439,148.674 159.309,146.667 159.309 C 144.363 159.309,143.974 159.208,143.767 158.558 C 143.567 157.928,143.116 157.790,140.958 157.695 C 139.153 157.615,138.416 157.439,138.484 157.102 C 138.550 156.768,137.984 156.622,136.625 156.622 C 135.251 156.622,134.380 156.394,133.694 155.854 C 132.993 155.303,132.137 155.086,130.658 155.086 C 129.465 155.086,128.599 154.915,128.599 154.680 C 128.599 154.456,128.446 154.368,128.258 154.484 C 128.071 154.599,127.695 154.426,127.423 154.098 C 127.105 153.714,126.371 153.523,125.364 153.562 C 123.093 153.649,122.768 153.595,123.033 153.167 C 123.163 152.956,123.087 152.762,122.863 152.735 C 122.640 152.709,122.284 152.644,122.073 152.591 C 121.862 152.538,120.729 152.474,119.555 152.447 C 118.097 152.414,117.505 152.264,117.685 151.972 C 118.114 151.278,117.035 150.876,114.724 150.870 C 113.157 150.865,112.497 150.705,112.337 150.288 C 112.173 149.859,111.488 149.712,109.654 149.712 C 107.514 149.712,107.165 149.611,106.990 148.944 C 106.823 148.305,106.467 148.177,104.862 148.177 C 103.660 148.177,102.717 147.960,102.358 147.601 C 101.990 147.232,101.042 147.025,99.729 147.025 C 98.150 147.025,97.523 146.847,97.018 146.257 C 96.186 145.285,93.666 145.168,93.666 146.101 M132.343 174.952 C 132.454 175.289,131.978 175.432,130.742 175.432 C 129.774 175.432,128.983 175.259,128.983 175.048 C 128.983 174.837,128.713 174.664,128.384 174.664 C 128.055 174.664,127.870 174.529,127.972 174.363 C 128.264 173.890,132.166 174.416,132.343 174.952 M143.186 176.200 L 143.954 176.967 141.999 176.967 C 140.626 176.967,139.754 176.739,139.068 176.200 L 138.092 175.432 140.255 175.432 C 141.907 175.432,142.600 175.614,143.186 176.200 M154.021 177.639 C 154.239 178.472,151.156 178.366,149.915 177.497 C 149.235 177.022,149.398 176.967,151.501 176.967 C 153.411 176.967,153.878 177.092,154.021 177.639 M163.532 178.740 C 163.532 179.171,163.765 179.299,164.299 179.159 C 164.722 179.049,165.067 179.115,165.067 179.307 C 165.067 179.907,160.538 179.724,160.192 179.109 C 160.023 178.810,159.280 178.492,158.541 178.403 C 157.802 178.314,158.623 178.214,160.365 178.180 C 163.051 178.128,163.532 178.213,163.532 178.740 M174.719 179.996 C 173.861 180.540,174.668 180.710,178.503 180.793 C 182.942 180.888,185.105 181.228,185.317 181.863 C 185.565 182.608,181.721 182.512,181.435 181.766 C 181.254 181.295,180.303 181.190,176.200 181.190 C 172.105 181.190,171.145 181.085,170.965 180.616 C 170.844 180.301,170.590 180.138,170.401 180.255 C 170.212 180.372,170.058 180.285,170.058 180.061 C 170.058 179.814,171.077 179.657,172.649 179.660 C 174.244 179.664,175.040 179.793,174.719 179.996 M178.414 195.393 C 177.958 196.123,177.536 196.160,169.869 196.131 C 165.433 196.114,162.016 196.015,162.274 195.910 C 162.533 195.805,162.842 195.739,162.960 195.762 C 163.078 195.786,163.440 195.539,163.765 195.215 C 164.805 194.175,179.067 194.348,178.414 195.393 M178.503 207.678 C 178.211 208.223,177.734 208.430,176.858 208.393 C 175.915 208.353,175.833 208.301,176.511 208.171 C 176.999 208.078,177.492 207.756,177.608 207.456 C 177.723 207.156,178.064 206.910,178.366 206.910 C 178.795 206.910,178.825 207.076,178.503 207.678 " stroke="none" fill="#c4c4c4" fill-rule="evenodd"></path><path id="path1" d="M193.612 9.300 C 193.450 9.562,193.555 9.612,193.895 9.436 C 194.191 9.282,194.098 9.428,193.689 9.760 C 193.279 10.093,192.372 10.365,191.673 10.365 C 190.800 10.365,190.403 10.545,190.403 10.940 C 190.403 11.324,190.019 11.516,189.251 11.516 C 188.589 11.516,188.097 11.720,188.094 11.996 C 188.090 12.344,187.996 12.330,187.753 11.947 C 187.361 11.328,186.564 11.697,186.564 12.499 C 186.564 13.034,185.344 13.240,183.205 13.067 C 182.646 13.022,182.342 13.210,182.342 13.600 C 182.342 14.164,181.681 14.387,180.488 14.225 C 180.208 14.187,179.886 14.512,179.772 14.948 C 179.614 15.550,179.255 15.739,178.266 15.739 C 177.392 15.739,176.967 15.920,176.967 16.291 C 176.967 16.781,173.950 17.593,173.033 17.351 C 172.874 17.309,172.745 17.534,172.745 17.850 C 172.745 18.252,172.340 18.426,171.401 18.426 C 170.313 18.426,170.058 18.572,170.058 19.194 C 170.058 19.815,169.802 19.962,168.714 19.962 C 167.776 19.962,167.370 20.135,167.370 20.537 C 167.370 20.857,167.029 21.113,166.603 21.113 C 166.091 21.113,165.835 21.369,165.835 21.881 C 165.835 23.746,164.769 22.566,164.535 20.441 C 164.401 19.227,164.264 18.054,164.231 17.833 C 164.177 17.469,163.857 17.380,161.996 17.207 C 160.526 17.070,157.778 17.304,157.819 17.562 C 157.950 18.394,157.711 18.762,157.175 18.556 C 156.775 18.403,156.505 18.598,156.362 19.144 C 156.245 19.594,155.909 19.962,155.617 19.962 C 155.325 19.962,155.086 20.221,155.086 20.537 C 155.086 20.854,154.811 21.113,154.475 21.113 C 154.138 21.113,153.773 21.459,153.662 21.881 C 153.552 22.303,153.222 22.649,152.930 22.649 C 152.638 22.649,152.399 22.908,152.399 23.225 C 152.399 23.544,152.058 23.800,151.631 23.800 C 151.120 23.800,150.864 24.056,150.864 24.568 C 150.864 24.990,150.611 25.336,150.301 25.336 C 149.992 25.336,149.558 25.675,149.336 26.089 C 149.114 26.504,148.713 26.759,148.445 26.656 C 148.177 26.553,147.593 26.809,147.147 27.224 C 146.423 27.899,145.708 27.988,140.487 28.060 C 135.161 28.133,134.622 28.204,134.453 28.850 C 134.291 29.467,133.193 29.799,131.958 29.604 C 131.799 29.579,131.670 29.807,131.670 30.110 C 131.670 30.452,131.195 30.707,130.422 30.782 C 129.438 30.877,129.180 31.073,129.199 31.711 C 129.217 32.309,129.042 32.473,128.527 32.338 C 128.083 32.222,127.831 32.365,127.831 32.732 C 127.831 33.049,127.486 33.398,127.063 33.509 C 126.641 33.619,126.296 33.985,126.296 34.321 C 126.296 34.658,126.036 34.933,125.720 34.933 C 125.403 34.933,125.144 35.208,125.144 35.545 C 125.144 35.881,124.798 36.247,124.376 36.357 C 123.803 36.507,123.608 36.881,123.608 37.831 C 123.608 38.786,123.408 39.167,122.803 39.359 C 122.157 39.564,122.027 39.862,122.143 40.863 C 122.265 41.906,122.177 42.081,121.605 41.932 C 121.158 41.815,120.921 41.967,120.921 42.374 C 120.921 42.715,120.619 43.001,120.250 43.009 C 119.880 43.017,116.166 43.011,111.996 42.995 C 104.615 42.967,104.415 42.987,104.415 43.748 C 104.415 44.363,104.166 44.530,103.251 44.530 C 102.584 44.530,101.995 44.769,101.872 45.091 C 101.753 45.400,101.327 45.757,100.924 45.885 C 100.521 46.012,100.192 46.364,100.192 46.667 C 100.192 46.969,99.933 47.217,99.616 47.217 C 99.299 47.217,99.040 47.476,99.040 47.793 C 99.040 48.109,98.793 48.369,98.490 48.369 C 98.188 48.369,97.831 48.714,97.697 49.136 C 97.524 49.681,97.116 49.904,96.291 49.904 C 95.453 49.904,95.074 50.117,94.929 50.672 C 94.818 51.094,94.509 51.440,94.242 51.440 C 93.974 51.440,93.664 51.790,93.552 52.218 C 93.440 52.647,93.117 52.949,92.835 52.890 C 92.553 52.831,92.371 53.014,92.429 53.296 C 92.488 53.578,92.186 53.901,91.758 54.013 C 91.329 54.125,90.979 54.455,90.979 54.747 C 90.979 55.039,90.633 55.278,90.211 55.278 C 89.789 55.278,89.464 55.408,89.489 55.566 C 89.623 56.415,89.363 56.814,88.676 56.814 C 88.249 56.814,87.908 57.070,87.908 57.390 C 87.908 57.706,87.649 57.965,87.332 57.965 C 87.012 57.965,86.756 58.307,86.756 58.733 C 86.756 59.229,86.500 59.501,86.033 59.501 C 85.622 59.501,85.219 59.848,85.099 60.307 C 84.983 60.751,84.704 61.000,84.479 60.860 C 84.239 60.712,84.069 60.935,84.069 61.398 C 84.069 61.932,83.821 62.188,83.301 62.188 C 82.790 62.188,82.534 62.444,82.534 62.956 C 82.534 63.382,82.278 63.724,81.958 63.724 C 81.641 63.724,81.382 63.983,81.382 64.299 C 81.382 64.619,81.041 64.875,80.614 64.875 C 80.102 64.875,79.846 65.131,79.846 65.643 C 79.846 66.070,79.591 66.411,79.271 66.411 C 78.954 66.411,78.695 66.670,78.695 66.987 C 78.695 67.311,78.352 67.562,77.910 67.562 C 77.376 67.562,77.162 67.777,77.238 68.234 C 77.314 68.683,77.064 68.947,76.488 69.029 C 76.012 69.096,75.624 69.398,75.624 69.700 C 75.624 70.002,75.365 70.250,75.048 70.250 C 74.728 70.250,74.472 70.591,74.472 71.017 C 74.472 71.542,74.216 71.785,73.663 71.785 C 73.102 71.785,72.922 71.961,73.075 72.361 C 73.226 72.753,73.055 72.937,72.541 72.937 C 72.041 72.937,71.785 73.197,71.785 73.704 C 71.785 74.216,71.529 74.472,71.017 74.472 C 70.505 74.472,70.250 74.728,70.250 75.240 C 70.250 75.666,69.994 76.008,69.674 76.008 C 69.272 76.008,69.098 76.413,69.098 77.351 C 69.098 78.439,68.952 78.695,68.330 78.695 C 67.691 78.695,67.562 78.951,67.562 80.218 C 67.562 81.415,67.439 81.694,66.987 81.521 C 66.534 81.347,66.411 81.629,66.411 82.845 C 66.411 84.760,66.104 85.605,65.410 85.605 C 65.058 85.605,64.875 86.049,64.875 86.903 C 64.875 87.879,64.684 88.252,64.107 88.403 C 63.685 88.513,63.340 88.874,63.340 89.203 C 63.340 89.579,63.124 89.720,62.764 89.582 C 62.371 89.431,62.188 89.604,62.188 90.125 C 62.188 90.567,61.864 90.974,61.420 91.090 C 60.861 91.236,60.653 91.614,60.653 92.478 C 60.653 93.278,60.465 93.666,60.077 93.666 C 59.760 93.666,59.501 93.925,59.501 94.242 C 59.501 94.562,59.160 94.818,58.733 94.818 C 58.221 94.818,57.965 95.074,57.965 95.585 C 57.965 96.012,57.710 96.353,57.390 96.353 C 57.073 96.353,56.814 96.693,56.814 97.109 C 56.814 97.636,56.633 97.795,56.215 97.635 C 55.818 97.482,55.546 97.673,55.408 98.201 C 55.263 98.757,54.834 99.033,53.992 99.115 C 53.115 99.200,52.798 99.417,52.836 99.904 C 52.887 100.540,52.494 100.763,51.631 100.589 C 51.420 100.547,51.376 100.640,51.532 100.796 C 51.963 101.227,51.077 102.096,50.452 101.855 C 50.088 101.716,49.904 101.908,49.904 102.428 C 49.904 102.874,49.573 103.316,49.136 103.455 C 48.714 103.589,48.369 103.860,48.369 104.057 C 48.369 104.253,48.109 104.415,47.793 104.415 C 47.476 104.415,47.237 104.544,47.262 104.702 C 47.396 105.551,47.136 105.950,46.449 105.950 C 46.027 105.950,45.681 106.191,45.681 106.485 C 45.681 106.779,45.422 107.119,45.106 107.241 C 44.789 107.362,44.530 107.726,44.530 108.049 C 44.530 108.381,44.196 108.637,43.762 108.637 C 43.335 108.637,42.994 108.893,42.994 109.213 C 42.994 109.957,41.627 111.324,40.883 111.324 C 40.566 111.324,40.328 111.454,40.353 111.612 C 40.481 112.426,40.242 112.860,39.667 112.860 C 39.315 112.860,39.141 112.974,39.280 113.112 C 39.419 113.251,39.342 113.595,39.109 113.875 C 38.876 114.156,38.786 114.647,38.909 114.966 C 39.061 115.363,38.893 115.547,38.376 115.547 C 37.960 115.547,37.620 115.786,37.620 116.078 C 37.620 116.370,37.274 116.699,36.852 116.810 C 36.266 116.963,36.084 117.333,36.084 118.378 C 36.084 119.436,35.954 119.696,35.509 119.525 C 35.116 119.374,34.933 119.546,34.933 120.068 C 34.933 120.509,34.608 120.917,34.165 121.033 C 33.606 121.179,33.397 121.556,33.397 122.421 C 33.397 123.221,33.209 123.608,32.821 123.608 C 32.379 123.608,32.246 124.099,32.246 125.720 C 32.246 127.575,32.153 127.831,31.478 127.831 C 30.856 127.831,30.710 128.087,30.710 129.175 C 30.710 130.083,30.533 130.518,30.162 130.518 C 29.595 130.518,28.839 134.534,29.317 135.011 C 29.652 135.346,28.773 136.311,28.363 136.058 C 28.176 135.942,28.023 137.025,28.023 138.465 C 28.023 140.690,27.905 141.156,27.234 141.575 C 26.800 141.846,26.474 142.363,26.510 142.723 C 26.786 145.478,26.451 148.522,25.896 148.309 C 25.571 148.185,25.332 148.233,25.366 148.417 C 25.804 150.821,25.255 156.554,24.568 156.733 C 23.858 156.919,23.800 157.257,23.800 161.220 C 23.800 164.518,23.668 165.639,23.225 166.082 C 22.790 166.516,22.649 167.593,22.649 170.469 C 22.649 173.915,22.581 174.280,21.942 174.280 C 21.359 174.280,21.223 174.616,21.167 176.200 C 21.107 177.891,21.191 178.119,21.874 178.119 C 22.504 178.119,22.649 178.371,22.649 179.463 C 22.649 180.401,22.822 180.806,23.225 180.806 C 23.625 180.806,23.800 181.208,23.800 182.124 C 23.800 183.104,23.997 183.504,24.568 183.685 C 25.040 183.835,25.336 184.266,25.336 184.804 C 25.336 185.285,25.664 186.057,26.064 186.519 C 26.493 187.014,26.709 187.678,26.589 188.136 C 26.441 188.702,26.608 188.971,27.205 189.127 C 27.934 189.318,28.278 190.323,28.068 191.651 C 28.043 191.809,28.282 191.939,28.599 191.939 C 28.916 191.939,29.175 192.270,29.175 192.675 C 29.175 193.807,29.586 194.626,30.155 194.626 C 30.506 194.626,30.707 195.270,30.786 196.641 C 30.881 198.285,31.026 198.647,31.574 198.603 C 32.108 198.561,32.246 198.856,32.246 200.043 C 32.246 201.114,32.408 201.536,32.821 201.536 C 33.344 201.536,33.694 204.382,33.425 206.436 C 33.390 206.703,33.499 206.899,33.667 206.870 C 34.779 206.683,34.933 207.014,34.933 209.597 C 34.933 211.730,35.052 212.284,35.509 212.284 C 36.115 212.284,36.204 212.985,36.087 216.836 C 36.049 218.109,36.170 218.803,36.405 218.657 C 36.811 218.406,36.766 218.965,36.293 220.058 C 36.073 220.566,35.546 220.729,34.124 220.729 L 32.246 220.729 32.246 227.447 C 32.246 233.163,32.332 234.165,32.821 234.165 C 33.278 234.165,33.397 234.720,33.397 236.852 C 33.397 239.283,33.470 239.539,34.165 239.539 C 34.808 239.539,34.933 239.795,34.933 241.116 C 34.933 242.360,35.054 242.646,35.509 242.472 C 36.025 242.274,36.351 243.608,36.130 245.010 C 36.105 245.168,36.430 245.298,36.852 245.298 C 37.518 245.298,37.620 245.553,37.620 247.217 C 37.620 248.667,37.761 249.136,38.196 249.136 C 38.578 249.136,38.772 249.519,38.772 250.274 C 38.772 251.020,39.037 251.554,39.539 251.823 C 40.080 252.113,40.307 252.627,40.307 253.564 C 40.307 254.491,40.482 254.894,40.883 254.894 C 41.203 254.894,41.459 255.236,41.459 255.662 C 41.459 256.084,41.804 256.775,42.226 257.198 C 42.767 257.738,42.994 258.477,42.994 259.693 C 42.994 261.164,43.108 261.420,43.762 261.420 C 44.355 261.420,44.530 261.676,44.530 262.545 C 44.530 263.163,44.789 263.928,45.106 264.245 C 45.422 264.561,45.681 265.281,45.681 265.843 C 45.681 266.544,45.924 266.930,46.449 267.067 C 47.026 267.218,47.217 267.591,47.217 268.567 C 47.217 269.465,47.394 269.866,47.793 269.866 C 48.228 269.866,48.369 270.335,48.369 271.785 C 48.369 273.448,48.471 273.704,49.136 273.704 C 49.756 273.704,49.904 273.960,49.904 275.029 C 49.904 275.851,50.140 276.485,50.526 276.701 C 50.954 276.941,51.141 277.559,51.125 278.682 C 51.107 279.985,51.253 280.354,51.847 280.509 C 52.398 280.653,52.591 281.040,52.591 282.003 C 52.591 282.872,52.772 283.301,53.139 283.301 C 53.516 283.301,53.770 283.962,53.951 285.413 C 54.128 286.828,54.390 287.524,54.747 287.524 C 55.098 287.524,55.278 287.979,55.278 288.868 C 55.278 289.955,55.425 290.211,56.046 290.211 C 56.721 290.211,56.814 290.467,56.814 292.322 C 56.814 293.943,56.948 294.434,57.390 294.434 C 57.826 294.434,57.965 294.907,57.965 296.389 C 57.965 298.022,58.092 298.378,58.733 298.545 C 59.391 298.717,59.712 299.539,59.554 300.648 C 59.514 300.934,60.749 301.407,61.285 301.311 C 62.343 301.122,63.340 301.417,63.340 301.919 C 63.340 302.236,63.469 302.475,63.628 302.450 C 64.552 302.304,64.875 302.617,64.875 303.659 C 64.875 304.314,65.115 304.915,65.425 305.033 C 65.814 305.183,66.052 306.241,66.242 308.668 C 66.439 311.182,66.650 312.092,67.036 312.092 C 67.418 312.092,67.562 312.671,67.562 314.203 C 67.562 315.365,67.692 316.294,67.850 316.269 C 68.889 316.105,69.098 316.435,69.098 318.234 C 69.098 319.684,69.239 320.154,69.674 320.154 C 70.192 320.154,70.443 321.048,70.285 322.332 C 70.254 322.580,70.579 322.894,71.007 323.029 C 71.435 323.165,71.785 323.524,71.785 323.826 C 71.785 324.129,72.044 324.376,72.361 324.376 C 72.742 324.376,72.937 324.757,72.937 325.502 C 72.937 326.291,73.167 326.701,73.704 326.871 C 74.127 327.005,74.472 327.429,74.472 327.812 C 74.472 328.198,74.833 328.604,75.279 328.720 C 75.723 328.836,75.971 329.115,75.832 329.341 C 75.684 329.580,75.906 329.750,76.369 329.750 C 76.903 329.750,77.159 329.999,77.159 330.518 C 77.159 331.030,77.415 331.286,77.927 331.286 C 78.354 331.286,78.695 331.542,78.695 331.862 C 78.695 332.179,79.021 332.438,79.420 332.438 C 79.868 332.438,80.125 332.688,80.092 333.092 C 80.055 333.541,80.363 333.774,81.069 333.835 C 81.636 333.884,82.462 334.285,82.904 334.727 C 83.470 335.294,84.112 335.504,85.076 335.439 C 86.035 335.374,86.553 335.543,86.811 336.004 C 87.139 336.590,88.028 336.660,95.174 336.660 C 102.220 336.660,103.231 336.737,103.696 337.310 C 104.145 337.863,104.143 337.911,103.683 337.634 C 103.318 337.414,103.232 337.452,103.418 337.753 C 103.569 337.996,104.441 338.196,105.356 338.196 C 106.481 338.196,107.091 338.382,107.241 338.772 C 107.362 339.088,107.726 339.347,108.049 339.347 C 108.381 339.347,108.637 339.682,108.637 340.115 C 108.637 340.537,108.878 340.883,109.172 340.883 C 109.466 340.883,109.806 341.142,109.928 341.459 C 110.054 341.788,110.627 342.035,111.268 342.035 C 112.064 342.035,112.444 342.256,112.587 342.802 C 112.739 343.384,113.111 343.570,114.123 343.570 C 115.135 343.570,115.506 343.756,115.658 344.338 C 115.804 344.897,116.182 345.106,117.047 345.106 C 117.846 345.106,118.234 345.294,118.234 345.681 C 118.234 346.148,118.851 346.257,121.478 346.257 C 124.168 346.257,124.786 346.372,125.098 346.929 C 125.400 347.470,126.058 347.613,128.476 347.664 C 130.127 347.698,131.867 347.741,132.342 347.760 C 132.839 347.779,133.205 348.037,133.205 348.369 C 133.205 348.685,133.458 348.944,133.768 348.944 C 134.077 348.944,134.518 349.295,134.747 349.724 C 134.977 350.153,135.372 350.478,135.625 350.447 C 137.015 350.272,137.776 350.511,137.567 351.056 C 137.396 351.500,137.652 351.631,138.686 351.631 C 139.703 351.631,140.074 351.816,140.226 352.399 C 140.373 352.958,140.750 353.167,141.615 353.167 C 142.414 353.167,142.802 353.355,142.802 353.743 C 142.802 354.141,143.203 354.319,144.101 354.319 C 145.103 354.319,145.449 354.505,145.614 355.136 C 145.736 355.605,146.042 355.872,146.330 355.762 C 147.036 355.494,148.657 356.155,148.383 356.599 C 148.258 356.801,148.765 357.081,149.509 357.221 C 150.287 357.367,150.864 357.702,150.864 358.008 C 150.864 358.362,151.317 358.541,152.207 358.541 C 153.295 358.541,153.551 358.688,153.551 359.309 C 153.551 359.821,153.807 360.077,154.319 360.077 C 154.745 360.077,155.086 360.333,155.086 360.653 C 155.086 361.055,155.492 361.228,156.430 361.228 C 157.518 361.228,157.774 361.375,157.774 361.996 C 157.774 362.508,158.029 362.764,158.541 362.764 C 158.968 362.764,159.309 363.020,159.309 363.340 C 159.309 364.093,164.127 364.184,164.429 363.436 C 164.536 363.172,164.636 364.131,164.653 365.568 L 164.683 368.180 166.477 368.063 C 167.653 367.987,168.335 367.748,168.459 367.370 C 168.624 366.864,168.558 366.862,167.913 367.352 C 167.509 367.658,167.358 367.704,167.577 367.452 C 167.908 367.073,176.520 366.425,179.771 366.535 C 180.152 366.548,180.559 366.309,180.676 366.005 C 181.001 365.156,206.723 365.178,207.049 366.027 C 207.193 366.402,207.789 366.603,208.761 366.603 C 211.890 366.603,214.971 367.092,214.971 367.589 C 214.971 367.974,216.758 368.091,223.096 368.123 C 230.275 368.160,231.283 368.241,231.762 368.823 C 232.103 369.238,232.197 369.269,232.016 368.906 C 231.813 368.498,231.961 368.533,232.526 369.027 C 232.964 369.411,233.555 369.693,233.840 369.654 C 235.023 369.491,235.701 369.708,235.701 370.250 C 235.701 370.652,236.106 370.825,237.044 370.825 C 238.132 370.825,238.388 370.972,238.388 371.593 C 238.388 372.215,238.644 372.361,239.731 372.361 C 240.670 372.361,241.075 372.535,241.075 372.937 C 241.075 373.412,241.779 373.512,245.106 373.512 C 248.469 373.512,249.136 373.415,249.136 372.925 C 249.136 372.601,249.397 372.237,249.716 372.114 C 250.119 371.960,250.253 371.496,250.154 370.601 C 250.076 369.892,250.145 369.393,250.307 369.494 C 250.746 369.765,251.850 369.260,251.623 368.892 C 251.311 368.388,251.918 368.189,254.068 368.091 C 255.472 368.027,256.021 367.858,255.894 367.527 C 255.762 367.185,256.692 366.981,259.269 366.788 C 263.497 366.471,264.339 366.589,264.187 367.480 C 264.111 367.924,264.330 368.138,264.858 368.138 C 265.480 368.138,265.643 368.386,265.643 369.326 C 265.643 370.190,265.852 370.568,266.411 370.714 C 266.833 370.825,267.179 371.134,267.179 371.401 C 267.179 372.059,268.435 372.349,271.305 372.356 L 273.704 372.361 273.704 368.138 L 273.704 363.916 275.048 363.916 C 275.986 363.916,276.392 363.742,276.392 363.340 C 276.392 363.020,276.733 362.764,277.159 362.764 C 277.586 362.764,277.927 363.020,277.927 363.340 C 277.927 363.806,278.546 363.916,281.190 363.916 L 284.453 363.916 284.453 359.117 C 284.453 354.575,284.494 354.319,285.221 354.319 C 285.643 354.319,285.988 354.080,285.988 353.788 C 285.988 353.496,286.351 353.162,286.795 353.046 C 287.271 352.921,287.491 352.657,287.332 352.399 C 287.173 352.142,287.393 351.877,287.869 351.753 C 288.313 351.637,288.676 351.303,288.676 351.011 C 288.676 350.719,289.021 350.480,289.443 350.480 C 289.955 350.480,290.211 350.224,290.211 349.712 C 290.211 349.286,290.467 348.944,290.787 348.944 C 291.104 348.944,291.363 348.705,291.363 348.413 C 291.363 348.121,291.708 347.792,292.131 347.681 C 292.553 347.571,292.898 347.205,292.898 346.869 C 292.898 346.532,293.157 346.257,293.474 346.257 C 293.791 346.257,294.050 346.018,294.050 345.726 C 294.050 345.434,294.395 345.105,294.818 344.994 C 295.240 344.884,295.585 344.518,295.585 344.182 C 295.585 343.845,295.845 343.570,296.161 343.570 C 296.481 343.570,296.737 343.229,296.737 342.802 C 296.737 342.306,296.993 342.035,297.460 342.035 C 297.858 342.035,298.268 341.710,298.371 341.314 C 298.607 340.414,300.513 340.520,301.209 341.472 C 301.466 341.824,301.861 341.998,302.086 341.858 C 302.326 341.710,302.495 341.937,302.495 342.408 C 302.495 342.849,302.754 343.310,303.071 343.431 C 303.388 343.553,303.647 343.890,303.647 344.180 C 303.647 344.795,304.891 345.151,306.526 345.002 L 307.678 344.897 307.738 341.558 C 307.772 339.722,307.686 338.234,307.547 338.253 C 306.617 338.377,306.334 338.060,306.334 336.897 C 306.334 335.900,306.146 335.549,305.528 335.387 C 305.051 335.263,304.831 334.998,304.990 334.741 C 305.149 334.484,304.930 334.219,304.453 334.094 C 303.396 333.818,303.364 332.438,304.415 332.438 C 304.841 332.438,305.182 332.182,305.182 331.862 C 305.182 331.427,305.652 331.286,307.102 331.286 C 308.823 331.286,309.026 331.197,309.066 330.422 C 309.098 329.792,309.157 329.737,309.283 330.218 C 309.386 330.607,309.996 330.978,310.774 331.124 C 311.524 331.265,312.092 331.601,312.092 331.905 C 312.092 332.198,312.275 332.438,312.499 332.438 C 312.722 332.438,312.783 332.222,312.634 331.958 C 312.418 331.574,312.467 331.574,312.880 331.958 C 313.165 332.222,313.976 332.438,314.684 332.438 L 315.971 332.438 315.891 329.939 C 315.790 326.844,315.581 327.010,319.554 327.025 C 321.609 327.033,322.782 326.895,322.639 326.664 C 322.348 326.193,322.958 325.984,325.144 325.804 C 326.178 325.719,326.834 325.486,326.779 325.223 C 326.729 324.981,327.031 324.599,327.451 324.374 C 327.939 324.113,328.215 323.571,328.215 322.872 C 328.215 322.101,328.442 321.719,328.983 321.578 C 329.651 321.403,329.750 321.054,329.750 318.887 C 329.750 317.028,329.896 316.341,330.326 316.176 C 330.643 316.054,330.902 315.690,330.902 315.367 C 330.902 315.035,331.236 314.779,331.670 314.779 C 332.096 314.779,332.438 314.523,332.438 314.203 C 332.438 313.887,332.697 313.628,333.013 313.628 C 333.330 313.628,333.589 313.302,333.589 312.905 C 333.589 312.505,333.932 312.092,334.357 311.981 C 334.916 311.835,335.125 311.457,335.125 310.593 C 335.125 309.661,335.290 309.405,335.893 309.405 C 336.404 309.405,336.660 309.149,336.660 308.637 C 336.660 308.211,336.916 307.869,337.236 307.869 C 337.553 307.869,337.812 307.631,337.812 307.338 C 337.812 307.046,338.157 306.717,338.580 306.607 C 339.002 306.496,339.347 306.131,339.347 305.794 C 339.347 305.458,339.607 305.182,339.923 305.182 C 340.325 305.182,340.499 304.777,340.499 303.839 C 340.499 303.039,340.688 302.495,340.967 302.495 C 341.696 302.495,343.186 300.552,343.186 299.601 C 343.186 299.069,343.476 298.670,343.954 298.545 C 344.376 298.435,344.722 298.069,344.722 297.733 C 344.722 297.396,344.962 297.121,345.255 297.121 C 345.560 297.121,345.896 296.547,346.040 295.777 C 346.191 294.973,346.516 294.434,346.850 294.434 C 347.158 294.434,347.409 294.108,347.409 293.711 C 347.409 293.311,347.752 292.898,348.177 292.787 C 348.728 292.643,348.944 292.263,348.944 291.440 C 348.944 290.775,349.186 290.200,349.520 290.072 C 349.857 289.943,350.096 289.368,350.096 288.688 C 350.096 287.780,350.265 287.524,350.864 287.524 C 351.376 287.524,351.631 287.268,351.631 286.756 C 351.631 286.334,351.880 285.988,352.184 285.988 C 352.546 285.988,352.778 285.491,352.856 284.549 C 352.936 283.578,353.163 283.109,353.551 283.109 C 353.920 283.109,354.170 282.661,354.247 281.862 C 354.321 281.089,354.577 280.614,354.919 280.614 C 355.293 280.614,355.470 280.183,355.470 279.271 C 355.470 278.050,355.757 277.730,356.718 277.882 C 356.876 277.907,357.006 277.322,357.006 276.583 C 357.006 275.645,357.179 275.240,357.582 275.240 C 357.935 275.240,358.157 274.880,358.157 274.308 C 358.157 273.795,358.460 273.072,358.829 272.702 C 359.561 271.969,359.583 271.888,359.649 269.770 C 359.685 268.601,359.837 268.330,360.461 268.330 C 361.078 268.330,361.228 268.074,361.228 267.028 C 361.228 266.224,361.449 265.641,361.804 265.504 C 362.141 265.375,362.380 264.800,362.380 264.120 C 362.380 263.381,362.575 262.956,362.915 262.956 C 363.663 262.956,363.797 262.412,363.882 259.021 L 363.956 256.046 361.980 256.046 C 360.328 256.046,359.972 256.172,359.804 256.814 C 359.694 257.236,359.364 257.582,359.072 257.582 C 358.780 257.582,358.541 257.841,358.541 258.157 C 358.541 258.474,358.236 258.733,357.863 258.733 C 357.110 258.733,352.690 263.044,352.864 263.609 C 352.925 263.805,352.370 264.539,351.631 265.239 C 350.893 265.940,350.547 266.375,350.864 266.206 C 351.180 266.038,350.878 266.449,350.192 267.119 C 349.506 267.789,348.944 268.681,348.944 269.101 C 348.944 269.534,348.688 269.866,348.352 269.866 C 348.003 269.866,347.805 270.138,347.872 270.527 C 347.965 271.073,347.730 271.169,346.528 271.072 C 344.223 270.887,341.945 271.382,342.188 272.015 C 342.344 272.420,342.019 272.553,340.871 272.553 C 339.603 272.553,339.347 272.682,339.347 273.321 C 339.347 273.832,339.091 274.088,338.580 274.088 C 338.157 274.088,337.855 274.290,337.908 274.536 C 337.961 274.783,337.442 275.153,336.756 275.360 C 336.070 275.566,335.509 275.969,335.509 276.255 C 335.509 276.541,335.244 276.775,334.921 276.775 C 334.597 276.775,334.233 277.035,334.112 277.351 C 333.990 277.668,333.564 277.927,333.164 277.927 C 332.694 277.927,332.438 278.197,332.438 278.695 C 332.438 279.128,332.182 279.463,331.850 279.463 C 331.526 279.463,331.167 279.711,331.050 280.015 C 330.933 280.319,330.334 280.678,329.718 280.813 C 329.103 280.948,328.599 281.304,328.599 281.604 C 328.599 282.097,328.132 282.318,327.351 282.195 C 327.193 282.170,327.063 282.397,327.063 282.700 C 327.063 283.002,326.718 283.359,326.296 283.493 C 325.873 283.627,325.528 283.984,325.528 284.287 C 325.528 284.617,325.146 284.837,324.571 284.837 C 324.031 284.837,323.407 285.171,323.135 285.605 C 322.872 286.027,322.438 286.372,322.173 286.372 C 321.907 286.372,321.689 286.631,321.689 286.948 C 321.689 287.468,321.233 287.694,320.441 287.569 C 320.283 287.544,320.154 287.869,320.154 288.292 C 320.154 288.866,319.898 289.060,319.136 289.060 C 318.417 289.060,317.580 289.622,316.279 290.979 C 315.267 292.035,314.232 292.898,313.980 292.898 C 313.727 292.898,313.273 293.201,312.970 293.570 C 312.667 293.940,312.528 294.026,312.662 293.762 C 312.796 293.498,312.702 293.282,312.454 293.282 C 312.205 293.282,312.085 293.598,312.187 293.987 C 312.338 294.564,312.195 294.658,311.401 294.506 C 310.631 294.359,310.479 294.447,310.666 294.933 C 310.820 295.335,310.643 295.628,310.153 295.784 C 309.742 295.914,309.405 296.269,309.405 296.571 C 309.405 296.873,309.103 297.141,308.733 297.165 C 308.364 297.190,307.802 297.233,307.486 297.261 C 307.169 297.290,306.934 297.615,306.963 297.985 C 306.997 298.410,306.746 298.656,306.279 298.656 C 305.874 298.656,305.443 298.916,305.321 299.232 C 305.200 299.549,304.773 299.808,304.374 299.808 C 303.974 299.808,303.301 300.154,302.879 300.576 C 302.457 300.998,301.920 301.344,301.686 301.344 C 301.453 301.344,301.364 301.612,301.490 301.939 C 301.616 302.267,301.560 302.437,301.366 302.317 C 301.172 302.197,300.902 302.277,300.768 302.495 C 300.633 302.713,300.362 302.792,300.165 302.671 C 299.969 302.549,299.808 302.806,299.808 303.240 C 299.808 303.864,299.563 304.031,298.644 304.031 C 297.964 304.031,297.389 304.270,297.260 304.607 C 297.138 304.923,296.810 305.182,296.530 305.182 C 296.250 305.182,295.915 305.517,295.785 305.926 C 295.645 306.368,295.131 306.719,294.520 306.790 C 293.917 306.860,293.315 307.266,293.065 307.771 C 292.830 308.245,292.511 308.506,292.355 308.350 C 292.200 308.195,291.905 308.369,291.699 308.736 C 291.493 309.104,291.074 309.405,290.768 309.405 C 290.462 309.405,290.211 309.750,290.211 310.173 C 290.211 310.794,289.955 310.940,288.868 310.940 C 287.929 310.940,287.524 311.114,287.524 311.516 C 287.524 312.036,287.068 312.263,286.276 312.138 C 286.118 312.113,285.988 312.438,285.988 312.860 C 285.988 313.455,285.733 313.628,284.850 313.628 C 284.100 313.628,283.570 313.893,283.296 314.406 C 283.066 314.834,282.703 315.076,282.488 314.943 C 282.274 314.811,282.003 315.065,281.887 315.508 C 281.749 316.037,281.368 316.315,280.781 316.315 C 279.839 316.315,277.927 317.823,277.927 318.566 C 277.927 318.806,277.393 319.002,276.739 319.002 C 275.875 319.002,275.497 319.211,275.351 319.770 C 275.165 320.481,274.362 320.747,272.981 320.554 C 272.643 320.507,272.533 320.700,272.681 321.084 C 272.912 321.689,272.229 321.884,270.508 321.704 C 269.478 321.596,268.404 320.364,268.262 319.126 C 268.120 317.881,264.491 317.144,264.491 318.360 C 264.491 318.664,264.141 319.004,263.713 319.116 C 263.284 319.228,262.982 319.546,263.041 319.823 C 263.100 320.101,262.759 320.387,262.284 320.459 C 261.809 320.532,261.420 320.838,261.420 321.140 C 261.420 321.442,261.075 321.689,260.653 321.689 C 259.987 321.689,259.885 321.433,259.885 319.770 C 259.885 317.782,258.073 316.785,257.443 318.426 C 257.321 318.743,256.976 319.002,256.675 319.002 C 256.374 319.002,256.029 318.743,255.907 318.426 C 255.551 317.497,252.514 317.654,251.903 318.633 C 251.634 319.063,251.243 319.310,251.034 319.180 C 250.824 319.051,250.677 319.087,250.708 319.261 C 250.895 320.342,250.566 320.537,248.560 320.537 C 247.012 320.537,246.449 320.680,246.449 321.072 C 246.449 321.366,246.190 321.706,245.873 321.828 C 245.557 321.949,245.298 322.313,245.298 322.637 C 245.298 323.054,244.902 323.225,243.931 323.225 C 243.118 323.225,242.661 323.380,242.802 323.608 C 242.933 323.820,242.857 323.992,242.633 323.992 C 242.409 323.992,242.226 323.809,242.226 323.586 C 242.226 323.362,242.054 323.286,241.844 323.415 C 241.634 323.545,241.261 323.210,241.015 322.670 C 240.769 322.131,240.336 321.689,240.054 321.689 C 239.771 321.689,239.539 321.430,239.539 321.113 C 239.539 320.679,239.073 320.537,237.646 320.537 C 235.519 320.537,235.049 321.131,235.511 323.233 C 235.726 324.215,235.649 324.376,234.963 324.376 C 234.252 324.376,234.165 324.605,234.165 326.488 C 234.165 328.108,234.031 328.599,233.589 328.599 C 233.273 328.599,233.013 328.846,233.013 329.149 C 233.013 329.451,232.668 329.808,232.246 329.942 C 231.823 330.076,231.478 330.434,231.478 330.736 C 231.478 331.039,231.132 331.286,230.710 331.286 C 230.198 331.286,229.942 331.542,229.942 332.054 C 229.942 332.480,229.687 332.821,229.367 332.821 C 229.050 332.821,228.791 333.081,228.791 333.397 C 228.791 333.985,228.402 334.032,223.510 334.036 C 222.155 334.037,221.576 334.174,221.749 334.454 C 221.917 334.725,221.768 334.780,221.325 334.610 C 220.819 334.415,220.701 334.497,220.867 334.928 C 221.057 335.425,220.457 335.509,216.687 335.509 C 213.369 335.509,212.308 335.627,212.380 335.988 C 212.448 336.330,211.556 336.524,209.294 336.660 C 207.232 336.785,206.001 337.032,205.797 337.364 C 205.543 337.776,205.435 337.757,205.248 337.268 C 205.068 336.801,204.444 336.660,202.548 336.660 C 200.710 336.660,200.026 336.514,199.861 336.084 C 199.689 335.635,198.922 335.509,196.365 335.509 C 193.346 335.509,193.090 335.449,193.090 334.741 C 193.090 334.030,192.834 333.973,189.635 333.973 C 186.820 333.973,186.180 333.866,186.180 333.397 C 186.180 332.915,185.375 332.821,181.233 332.821 C 176.756 332.821,176.290 332.758,176.338 332.150 C 176.387 331.538,175.810 331.468,169.901 331.372 C 164.369 331.282,163.341 331.173,162.943 330.628 C 162.494 330.014,161.082 329.865,154.798 329.769 C 153.954 329.757,153.551 329.564,153.551 329.175 C 153.551 328.858,153.421 328.619,153.263 328.644 C 151.770 328.880,149.328 328.522,149.328 328.068 C 149.328 327.491,148.192 327.077,146.586 327.069 C 146.028 327.066,145.472 326.804,145.351 326.488 C 145.212 326.126,144.625 325.912,143.774 325.912 C 142.844 325.912,142.418 325.737,142.418 325.353 C 142.418 325.021,141.885 324.695,141.101 324.548 C 140.377 324.412,139.692 324.059,139.578 323.763 C 139.464 323.467,138.869 323.225,138.255 323.225 C 137.641 323.225,136.901 322.932,136.611 322.575 C 136.163 322.022,136.164 321.974,136.624 322.250 C 136.990 322.471,137.075 322.433,136.889 322.132 C 136.738 321.888,136.107 321.689,135.486 321.689 C 134.613 321.689,134.357 321.515,134.357 320.921 C 134.357 320.409,134.613 320.154,135.125 320.154 C 135.633 320.154,135.893 319.898,135.893 319.398 C 135.893 318.922,136.084 318.716,136.410 318.841 C 136.809 318.994,136.945 318.422,137.006 316.333 L 137.085 313.628 135.145 313.628 C 133.749 313.628,133.205 313.777,133.205 314.159 C 133.205 314.451,132.860 314.780,132.438 314.890 C 132.015 315.001,131.670 315.367,131.670 315.703 C 131.670 316.573,126.383 316.607,126.051 315.739 C 125.929 315.422,125.609 315.163,125.340 315.163 C 125.070 315.163,124.759 314.818,124.649 314.395 C 124.503 313.836,124.125 313.628,123.261 313.628 C 122.329 313.628,122.073 313.462,122.073 312.860 C 122.073 312.433,121.817 312.092,121.497 312.092 C 121.180 312.092,120.921 311.833,120.921 311.516 C 120.921 311.196,120.580 310.940,120.154 310.940 C 119.642 310.940,119.386 310.685,119.386 310.173 C 119.386 309.665,119.130 309.405,118.630 309.405 C 118.116 309.405,117.945 309.221,118.095 308.829 C 118.249 308.430,118.069 308.253,117.507 308.253 C 116.955 308.253,116.699 308.010,116.699 307.486 C 116.699 306.974,116.443 306.718,115.931 306.718 C 115.419 306.718,115.163 306.462,115.163 305.950 C 115.163 305.524,114.907 305.182,114.587 305.182 C 114.271 305.182,114.012 304.923,114.012 304.607 C 114.012 304.287,113.670 304.031,113.244 304.031 C 112.732 304.031,112.476 303.775,112.476 303.263 C 112.476 302.836,112.220 302.495,111.900 302.495 C 111.583 302.495,111.324 302.236,111.324 301.919 C 111.324 301.599,110.983 301.344,110.557 301.344 C 110.134 301.344,109.789 301.089,109.789 300.778 C 109.789 300.466,109.263 299.940,108.621 299.608 C 107.978 299.275,107.292 298.580,107.095 298.062 C 106.880 297.498,106.431 297.121,105.972 297.121 C 105.414 297.121,105.273 296.947,105.453 296.478 C 105.640 295.992,105.544 295.896,105.057 296.083 C 104.588 296.262,104.415 296.121,104.415 295.561 C 104.415 295.139,104.112 294.678,103.743 294.537 C 103.373 294.396,102.532 293.710,101.874 293.014 C 101.216 292.317,100.309 291.747,99.859 291.747 C 99.296 291.747,99.040 291.507,99.040 290.979 C 99.040 290.557,98.911 290.232,98.752 290.257 C 97.978 290.379,97.505 290.160,97.505 289.680 C 97.505 289.388,97.142 289.054,96.698 288.938 C 96.255 288.822,95.998 288.555,96.128 288.345 C 96.258 288.135,96.016 287.853,95.591 287.718 C 95.166 287.583,94.818 287.225,94.818 286.922 C 94.818 286.620,94.559 286.372,94.242 286.372 C 93.925 286.372,93.666 286.113,93.666 285.797 C 93.666 285.480,93.519 285.221,93.339 285.221 C 92.874 285.221,90.595 282.986,90.595 282.530 C 90.595 282.321,90.356 282.150,90.064 282.150 C 89.772 282.150,89.443 281.804,89.332 281.382 C 89.222 280.960,88.856 280.614,88.520 280.614 C 88.183 280.614,87.908 280.355,87.908 280.038 C 87.908 279.722,87.669 279.463,87.377 279.463 C 87.085 279.463,86.755 279.117,86.645 278.695 C 86.535 278.273,86.169 277.927,85.832 277.927 C 85.496 277.927,85.221 277.668,85.221 277.351 C 85.221 277.035,85.025 276.775,84.785 276.775 C 84.272 276.775,82.534 274.981,82.534 274.452 C 82.534 274.252,82.286 274.088,81.984 274.088 C 81.681 274.088,81.324 273.743,81.190 273.321 C 81.056 272.898,80.699 272.553,80.396 272.553 C 80.094 272.553,79.846 272.305,79.846 272.003 C 79.846 271.700,79.501 271.343,79.079 271.209 C 78.656 271.075,78.311 270.718,78.311 270.416 C 78.311 270.113,78.072 269.866,77.780 269.866 C 77.488 269.866,77.159 269.520,77.048 269.098 C 76.938 268.676,76.572 268.330,76.236 268.330 C 75.899 268.330,75.624 268.071,75.624 267.754 C 75.624 267.438,75.385 267.179,75.093 267.179 C 74.801 267.179,74.471 266.833,74.361 266.411 C 74.251 265.988,73.885 265.643,73.548 265.643 C 73.212 265.643,72.937 265.384,72.937 265.067 C 72.937 264.750,72.678 264.491,72.361 264.491 C 72.037 264.491,71.785 264.148,71.785 263.709 C 71.785 263.278,71.094 262.228,70.250 261.375 C 69.405 260.522,68.714 259.665,68.714 259.471 C 68.714 259.276,68.455 259.117,68.138 259.117 C 67.619 259.117,67.392 258.661,67.517 257.869 C 67.542 257.711,67.217 257.582,66.795 257.582 C 66.196 257.582,66.027 257.326,66.027 256.418 C 66.027 255.738,65.788 255.162,65.451 255.033 C 65.134 254.912,64.875 254.499,64.875 254.117 C 64.875 253.011,64.454 252.207,63.874 252.207 C 63.538 252.207,63.340 251.786,63.340 251.069 C 63.340 250.337,63.075 249.789,62.597 249.534 C 62.080 249.257,61.907 248.850,62.026 248.193 C 62.147 247.526,61.971 247.128,61.425 246.835 C 60.827 246.515,60.653 246.033,60.653 244.696 C 60.653 243.516,60.470 242.900,60.077 242.749 C 59.760 242.628,59.501 242.215,59.501 241.833 C 59.501 240.727,59.080 239.923,58.500 239.923 C 58.177 239.923,57.965 239.518,57.965 238.898 C 57.965 238.334,57.663 237.516,57.294 237.081 C 56.654 236.327,56.654 236.314,57.294 236.810 C 57.663 237.096,57.965 237.157,57.965 236.946 C 57.965 236.431,56.994 235.649,56.709 235.934 C 56.584 236.058,56.572 235.817,56.681 235.398 C 56.791 234.979,56.700 234.524,56.480 234.388 C 56.260 234.252,56.177 233.887,56.296 233.577 C 56.431 233.226,56.280 233.013,55.895 233.013 C 55.513 233.013,55.276 232.685,55.272 232.150 C 55.263 230.752,54.810 230.423,52.843 230.387 C 51.359 230.360,51.027 230.466,51.200 230.915 C 51.344 231.292,51.166 231.478,50.660 231.478 C 50.215 231.478,49.904 231.219,49.904 230.848 C 49.904 230.502,49.602 229.971,49.232 229.668 C 48.793 229.308,48.760 229.204,49.136 229.367 C 49.513 229.529,49.480 229.425,49.040 229.065 C 48.169 228.351,48.192 227.815,49.136 226.871 C 49.757 226.250,49.904 226.218,49.904 226.700 C 49.904 227.173,50.284 227.273,51.727 227.180 L 53.551 227.063 53.621 225.146 C 53.664 223.988,53.487 222.999,53.175 222.651 C 52.826 222.260,52.616 220.676,52.528 217.770 C 52.423 214.251,52.279 213.377,51.740 212.972 C 51.198 212.565,51.064 211.730,50.990 208.299 C 50.930 205.492,50.737 203.959,50.402 203.624 C 49.745 202.967,49.707 197.059,50.358 196.842 C 50.608 196.758,50.910 195.837,51.030 194.794 C 51.183 193.462,51.419 192.898,51.823 192.898 C 52.192 192.898,52.442 192.450,52.520 191.651 C 52.594 190.878,52.850 190.403,53.191 190.403 C 53.566 190.403,53.743 189.972,53.743 189.060 C 53.743 188.251,54.034 187.425,54.473 186.985 C 55.121 186.338,55.207 185.630,55.229 180.798 C 55.249 176.479,55.371 175.252,55.817 174.907 C 56.248 174.574,56.430 173.143,56.591 168.805 C 56.741 164.795,56.966 162.887,57.361 162.279 C 57.779 161.637,57.926 160.069,57.943 156.061 C 57.963 151.611,58.069 150.644,58.569 150.365 C 58.960 150.146,59.133 149.602,59.065 148.809 C 59.007 148.138,59.075 147.404,59.215 147.177 C 59.355 146.950,59.468 145.157,59.464 143.192 C 59.461 140.895,59.623 139.468,59.920 139.196 C 60.262 138.881,60.311 138.896,60.110 139.251 C 59.961 139.515,60.004 139.731,60.204 139.731 C 60.405 139.731,60.586 138.604,60.606 137.227 C 60.634 135.354,60.840 134.456,61.422 133.669 C 61.995 132.894,62.166 132.172,62.068 130.938 C 61.960 129.569,62.065 129.227,62.638 129.077 C 63.206 128.928,63.340 128.507,63.340 126.871 C 63.340 125.172,63.462 124.818,64.107 124.649 C 64.661 124.504,64.875 124.125,64.875 123.292 C 64.875 122.657,65.052 122.078,65.268 122.006 C 65.483 121.934,65.752 121.371,65.863 120.754 C 65.975 120.138,66.319 119.448,66.627 119.222 C 66.935 118.995,67.266 118.398,67.363 117.894 C 67.460 117.390,67.821 116.666,68.165 116.285 C 68.510 115.904,68.818 115.150,68.849 114.610 C 68.880 114.070,69.103 113.628,69.345 113.628 C 69.586 113.628,69.892 113.344,70.025 112.998 C 70.237 112.447,70.181 112.434,69.587 112.895 C 69.048 113.313,69.066 113.225,69.674 112.476 C 70.096 111.955,70.665 111.350,70.938 111.131 C 71.212 110.913,71.466 110.334,71.502 109.846 C 71.539 109.358,71.877 108.793,72.253 108.592 C 72.629 108.391,72.937 108.060,72.937 107.856 C 72.937 107.652,73.282 107.140,73.704 106.718 C 74.127 106.296,74.472 105.524,74.472 105.002 C 74.472 104.274,74.621 104.112,75.115 104.301 C 75.605 104.490,75.698 104.393,75.505 103.891 C 75.347 103.478,75.470 103.151,75.837 103.010 C 76.158 102.887,76.664 102.202,76.962 101.489 C 77.260 100.776,77.686 100.192,77.907 100.192 C 78.129 100.192,78.311 99.953,78.311 99.661 C 78.311 99.369,78.656 99.040,79.079 98.929 C 79.501 98.819,79.846 98.453,79.846 98.117 C 79.846 97.780,80.106 97.505,80.422 97.505 C 80.739 97.505,80.998 97.284,80.998 97.014 C 80.998 96.745,81.344 96.228,81.766 95.866 C 82.188 95.505,82.534 94.882,82.534 94.482 C 82.534 94.075,82.876 93.666,83.312 93.552 C 83.741 93.440,84.043 93.204,83.984 93.027 C 83.850 92.624,85.258 91.194,86.114 90.866 C 86.467 90.730,86.756 90.355,86.756 90.031 C 86.756 89.708,87.015 89.443,87.332 89.443 C 87.652 89.443,87.908 89.102,87.908 88.676 C 87.908 88.156,88.164 87.908,88.698 87.908 C 89.161 87.908,89.384 87.738,89.235 87.498 C 89.096 87.273,89.345 86.994,89.789 86.878 C 90.248 86.757,90.595 86.355,90.595 85.944 C 90.595 85.470,90.867 85.221,91.385 85.221 C 91.848 85.221,92.071 85.051,91.923 84.811 C 91.783 84.586,92.027 84.308,92.463 84.194 C 92.900 84.080,93.360 83.659,93.487 83.260 C 93.614 82.860,93.965 82.534,94.268 82.534 C 94.570 82.534,94.818 82.194,94.818 81.778 C 94.818 81.266,95.002 81.093,95.390 81.242 C 95.730 81.372,96.069 81.184,96.225 80.779 C 96.554 79.920,97.560 78.903,98.398 78.582 C 98.751 78.446,99.040 78.089,99.040 77.788 C 99.040 77.488,99.299 77.142,99.616 77.020 C 99.933 76.899,100.192 76.535,100.192 76.212 C 100.192 75.880,100.526 75.624,100.960 75.624 C 101.386 75.624,101.727 75.368,101.727 75.048 C 101.727 74.731,101.987 74.472,102.303 74.472 C 102.623 74.472,102.879 74.131,102.879 73.704 C 102.879 73.106,103.135 72.937,104.043 72.937 C 104.710 72.937,105.298 72.697,105.422 72.375 C 105.540 72.067,105.967 71.710,106.369 71.582 C 106.772 71.454,107.102 71.102,107.102 70.799 C 107.102 70.497,107.379 70.250,107.719 70.250 C 108.109 70.250,108.254 70.038,108.115 69.674 C 107.993 69.357,108.071 69.098,108.288 69.098 C 108.505 69.098,108.564 68.907,108.420 68.673 C 108.243 68.387,108.424 68.333,108.973 68.507 C 109.568 68.696,109.789 68.603,109.789 68.164 C 109.789 67.833,110.048 67.562,110.365 67.562 C 110.880 67.562,111.108 67.114,110.991 66.329 C 110.968 66.178,111.217 66.157,111.544 66.282 C 111.938 66.434,112.210 66.236,112.352 65.693 C 112.474 65.224,112.874 64.875,113.289 64.875 C 113.756 64.875,114.012 64.603,114.012 64.107 C 114.012 63.509,114.267 63.340,115.175 63.340 C 115.855 63.340,116.431 63.101,116.560 62.764 C 116.681 62.447,117.038 62.188,117.351 62.188 C 117.665 62.188,118.013 61.843,118.123 61.420 C 118.253 60.924,118.647 60.653,119.239 60.653 C 119.742 60.653,120.495 60.311,120.913 59.894 C 121.330 59.476,121.924 59.231,122.233 59.350 C 122.556 59.474,123.006 59.227,123.294 58.765 C 123.568 58.325,124.011 57.965,124.277 57.965 C 124.543 57.965,124.760 57.726,124.760 57.432 C 124.760 57.127,125.334 56.792,126.104 56.647 C 126.908 56.496,127.447 56.171,127.447 55.837 C 127.447 55.454,127.871 55.278,128.791 55.278 C 129.679 55.278,130.134 55.098,130.134 54.747 C 130.134 54.455,130.480 54.126,130.902 54.015 C 131.324 53.905,131.670 53.550,131.670 53.227 C 131.670 52.845,132.106 52.598,132.917 52.520 C 133.859 52.429,134.137 52.234,134.052 51.727 C 133.944 51.082,134.963 50.808,136.616 51.039 C 136.954 51.086,137.064 50.893,136.916 50.509 C 136.744 50.059,136.927 49.904,137.632 49.904 C 138.324 49.904,138.580 49.697,138.580 49.136 C 138.580 48.515,138.836 48.369,139.923 48.369 C 140.862 48.369,141.267 48.195,141.267 47.793 C 141.267 47.434,141.629 47.217,142.226 47.217 C 142.754 47.217,143.186 47.034,143.186 46.810 C 143.186 46.587,143.388 46.529,143.635 46.681 C 143.937 46.868,144.004 46.750,143.839 46.320 C 143.601 45.699,144.560 45.434,146.213 45.665 C 146.551 45.712,146.661 45.518,146.513 45.134 C 146.348 44.705,146.510 44.530,147.073 44.530 C 147.542 44.530,147.946 44.217,148.065 43.762 C 148.216 43.185,148.589 42.994,149.565 42.994 C 150.463 42.994,150.864 42.817,150.864 42.418 C 150.864 42.102,151.195 41.843,151.600 41.843 C 152.744 41.843,153.551 41.429,153.551 40.842 C 153.551 40.457,154.082 40.307,155.444 40.307 C 157.001 40.307,157.381 40.170,157.582 39.539 C 157.716 39.117,158.159 38.750,158.567 38.724 C 159.944 38.635,160.104 38.581,160.394 38.112 C 160.553 37.855,161.237 37.602,161.915 37.551 C 162.808 37.483,163.148 37.267,163.148 36.771 C 163.148 36.204,163.479 36.084,165.048 36.084 C 166.329 36.084,167.052 35.899,167.267 35.515 C 167.476 35.141,168.242 34.931,169.494 34.902 C 171.976 34.847,172.745 34.621,172.745 33.947 C 172.745 33.522,173.358 33.397,175.455 33.397 C 177.029 33.397,178.072 33.248,177.943 33.040 C 177.524 32.362,178.577 32.163,182.468 32.184 C 186.846 32.207,187.716 32.054,187.716 31.260 C 187.716 30.789,207.270 30.289,210.275 30.683 C 210.542 30.718,210.738 30.609,210.709 30.440 C 210.564 29.581,210.823 29.175,211.516 29.175 C 211.943 29.175,212.284 28.919,212.284 28.599 C 212.284 28.282,212.524 28.023,212.818 28.023 C 213.619 28.023,213.781 26.820,213.774 20.943 C 213.766 14.213,213.738 14.156,210.575 14.349 C 208.430 14.479,208.104 14.408,207.938 13.775 C 207.805 13.263,207.402 13.052,206.562 13.052 C 205.630 13.052,205.374 12.886,205.374 12.284 C 205.374 11.862,205.134 11.516,204.840 11.516 C 204.545 11.516,204.205 11.257,204.084 10.940 C 203.962 10.624,203.598 10.365,203.275 10.365 C 202.952 10.365,202.687 10.124,202.687 9.830 C 202.687 8.836,194.205 8.341,193.612 9.300 M247.985 20.537 C 247.985 20.891,247.626 21.113,247.056 21.113 C 245.731 21.113,244.914 21.495,244.914 22.114 C 244.914 22.408,244.655 22.649,244.338 22.649 C 244.021 22.649,243.762 22.951,243.762 23.321 C 243.762 23.935,243.181 23.992,236.948 23.992 C 231.147 23.992,230.134 24.078,230.134 24.568 C 230.134 24.956,229.666 25.183,228.695 25.263 C 227.811 25.336,227.255 25.580,227.255 25.894 C 227.255 26.175,226.996 26.505,226.679 26.626 C 226.363 26.748,226.104 27.070,226.104 27.343 C 226.104 27.615,225.758 28.054,225.336 28.318 C 224.656 28.743,224.568 29.213,224.568 32.441 C 224.568 35.829,224.622 36.084,225.336 36.084 C 225.938 36.084,226.104 36.340,226.104 37.272 C 226.104 38.112,226.315 38.515,226.827 38.649 C 227.339 38.783,227.489 39.069,227.342 39.633 C 227.169 40.296,227.272 40.392,227.962 40.212 C 228.597 40.046,228.791 40.166,228.791 40.727 C 228.791 41.129,229.050 41.459,229.367 41.459 C 229.683 41.459,229.942 41.723,229.942 42.047 C 229.942 42.370,230.245 42.748,230.614 42.887 C 230.984 43.025,231.515 43.408,231.794 43.738 C 232.208 44.226,232.249 44.230,232.016 43.762 C 231.804 43.336,231.929 43.361,232.499 43.859 C 232.922 44.229,233.369 44.430,233.493 44.306 C 233.617 44.182,233.912 44.440,234.147 44.881 C 234.413 45.378,234.955 45.681,235.576 45.681 C 236.126 45.681,236.789 45.973,237.050 46.330 C 237.378 46.779,238.192 47.011,239.697 47.084 C 241.016 47.149,242.103 47.422,242.460 47.779 C 242.923 48.242,244.020 48.369,247.586 48.369 C 251.670 48.369,252.117 48.435,252.069 49.040 C 252.014 49.733,252.173 49.785,254.607 49.860 C 255.611 49.891,256.046 50.078,256.046 50.480 C 256.046 50.797,256.371 51.056,256.769 51.056 C 257.167 51.056,257.579 51.389,257.686 51.796 C 257.819 52.305,258.282 52.575,259.170 52.660 C 260.081 52.747,260.423 52.953,260.333 53.359 C 260.262 53.676,260.333 53.807,260.489 53.650 C 260.646 53.494,261.004 53.556,261.284 53.789 C 261.565 54.022,262.056 54.112,262.375 53.990 C 262.772 53.837,262.956 54.006,262.956 54.523 C 262.956 55.022,263.216 55.278,263.724 55.278 C 264.150 55.278,264.491 55.534,264.491 55.854 C 264.491 56.171,264.750 56.452,265.067 56.478 C 266.421 56.591,267.605 57.203,267.330 57.647 C 267.204 57.851,267.335 57.985,267.620 57.946 C 268.809 57.782,269.482 58.001,269.482 58.551 C 269.482 58.873,269.914 59.300,270.441 59.501 C 270.969 59.702,271.401 60.043,271.401 60.259 C 271.401 60.476,271.919 60.653,272.553 60.653 C 273.448 60.653,273.704 60.823,273.704 61.420 C 273.704 61.918,273.960 62.188,274.431 62.188 C 274.831 62.188,275.257 62.447,275.379 62.764 C 275.508 63.101,276.083 63.340,276.763 63.340 C 277.671 63.340,277.927 63.509,277.927 64.107 C 277.927 64.530,278.057 64.855,278.215 64.830 C 279.007 64.705,279.463 64.932,279.463 65.451 C 279.463 65.977,280.002 66.178,281.286 66.130 C 281.550 66.120,281.766 66.340,281.766 66.619 C 281.766 66.898,282.111 67.236,282.534 67.370 C 282.956 67.504,283.301 67.862,283.301 68.164 C 283.301 68.467,283.484 68.714,283.708 68.714 C 283.931 68.714,284.005 68.498,283.871 68.234 C 283.738 67.970,283.876 68.057,284.179 68.426 C 284.482 68.796,285.013 69.098,285.359 69.098 C 285.705 69.098,285.988 69.357,285.988 69.674 C 285.988 70.036,286.354 70.250,286.971 70.250 C 287.594 70.250,287.857 70.406,287.689 70.676 C 287.360 71.209,288.205 71.771,289.347 71.779 C 289.857 71.783,290.211 72.021,290.211 72.361 C 290.211 72.678,290.450 72.937,290.742 72.937 C 291.034 72.937,291.362 73.276,291.470 73.690 C 291.606 74.208,291.917 74.395,292.467 74.289 C 292.907 74.205,293.250 74.254,293.229 74.400 C 293.120 75.167,293.335 75.651,293.762 75.595 C 295.029 75.431,295.585 75.673,295.585 76.392 C 295.585 76.952,295.841 77.159,296.533 77.159 C 297.261 77.159,297.424 77.308,297.234 77.802 C 297.047 78.288,297.143 78.384,297.630 78.198 C 297.983 78.062,298.273 78.118,298.273 78.323 C 298.273 78.527,298.402 78.674,298.560 78.649 C 299.352 78.524,299.808 78.751,299.808 79.271 C 299.808 79.587,300.148 79.846,300.564 79.846 C 301.076 79.846,301.249 80.031,301.100 80.419 C 300.967 80.765,301.161 81.092,301.592 81.245 C 301.983 81.385,302.562 81.719,302.879 81.989 C 303.468 82.490,303.606 82.534,304.607 82.534 C 304.923 82.534,305.182 82.842,305.182 83.220 C 305.182 83.646,305.494 83.929,306.007 83.968 C 306.461 84.002,307.022 84.237,307.255 84.490 C 307.568 84.830,307.553 84.879,307.198 84.679 C 306.934 84.530,306.718 84.591,306.718 84.814 C 306.718 85.038,306.939 85.221,307.208 85.221 C 307.478 85.221,307.995 85.566,308.356 85.988 C 308.718 86.411,309.361 86.756,309.785 86.756 C 310.215 86.756,310.557 87.011,310.557 87.332 C 310.557 87.649,310.884 87.908,311.283 87.908 C 311.683 87.908,312.103 88.151,312.217 88.447 C 312.331 88.744,312.936 89.100,313.563 89.237 C 314.233 89.384,314.781 89.794,314.896 90.233 C 315.009 90.663,315.422 90.979,315.872 90.979 C 316.302 90.979,316.777 91.178,316.927 91.422 C 317.097 91.697,317.033 91.761,316.758 91.591 C 316.514 91.441,316.315 91.500,316.315 91.724 C 316.315 91.948,316.849 92.131,317.502 92.131 C 318.367 92.131,318.744 92.339,318.891 92.898 C 319.196 94.065,326.040 94.065,326.769 92.898 C 327.828 91.203,329.742 91.867,329.808 93.954 C 329.840 94.957,329.883 96.308,329.904 96.956 C 329.925 97.605,330.229 98.422,330.580 98.773 C 330.944 99.137,331.131 99.741,331.017 100.179 C 330.906 100.602,330.899 101.167,331.002 101.434 C 331.104 101.701,331.236 102.092,331.295 102.303 C 331.354 102.514,331.629 102.860,331.906 103.071 C 332.184 103.282,332.462 104.232,332.525 105.182 C 332.606 106.405,332.806 106.910,333.210 106.910 C 333.622 106.910,333.815 107.437,333.901 108.804 C 333.970 109.893,334.258 110.873,334.577 111.108 C 334.883 111.332,335.216 111.948,335.317 112.476 C 335.417 113.004,335.761 113.627,336.080 113.862 C 336.399 114.096,336.660 114.590,336.660 114.959 C 336.660 115.397,336.860 115.553,337.236 115.408 C 337.751 115.211,337.987 115.591,337.857 116.411 C 337.832 116.569,338.157 116.699,338.580 116.699 C 339.091 116.699,339.347 116.955,339.347 117.466 C 339.347 117.889,339.588 118.234,339.882 118.234 C 340.176 118.234,340.516 118.493,340.638 118.810 C 340.759 119.127,341.037 119.386,341.255 119.386 C 341.473 119.386,341.996 119.731,342.418 120.154 C 342.841 120.576,343.532 120.921,343.954 120.921 C 344.380 120.921,344.722 121.177,344.722 121.497 C 344.722 121.814,345.037 122.388,345.423 122.774 C 345.808 123.160,346.235 123.764,346.370 124.118 C 346.506 124.471,346.795 124.760,347.013 124.760 C 347.231 124.760,347.409 125.268,347.409 125.889 C 347.409 126.510,347.608 127.141,347.852 127.292 C 348.143 127.472,348.199 127.381,348.015 127.027 C 347.862 126.730,348.008 126.823,348.340 127.233 C 349.320 128.441,349.209 135.724,348.204 136.262 C 347.107 136.849,347.141 142.535,348.247 143.641 C 348.658 144.052,349.027 144.815,349.067 145.338 C 349.107 145.860,349.325 146.410,349.550 146.560 C 349.776 146.710,350.072 147.135,350.208 147.505 C 350.344 147.874,350.720 148.177,351.044 148.177 C 351.442 148.177,351.631 148.551,351.631 149.341 C 351.631 150.088,351.872 150.603,352.303 150.780 C 352.673 150.932,353.023 151.484,353.082 152.008 C 353.141 152.531,353.668 153.397,354.254 153.932 C 354.839 154.467,355.433 155.204,355.574 155.571 C 355.715 155.938,356.095 156.238,356.418 156.238 C 356.750 156.238,357.006 156.572,357.006 157.006 C 357.006 157.518,357.262 157.774,357.774 157.774 C 358.207 157.774,358.541 158.029,358.541 158.361 C 358.541 158.685,358.800 159.049,359.117 159.170 C 359.434 159.292,359.693 159.632,359.693 159.926 C 359.693 160.220,360.038 160.461,360.461 160.461 C 360.972 160.461,361.228 160.717,361.228 161.228 C 361.228 161.655,361.484 161.996,361.804 161.996 C 363.123 161.996,363.916 163.442,363.916 165.847 C 363.916 167.479,364.074 168.223,364.454 168.369 C 364.749 168.482,365.079 168.909,365.185 169.316 C 365.345 169.926,365.725 170.058,367.335 170.058 C 368.410 170.058,369.290 170.117,369.290 170.191 C 369.290 170.264,369.032 170.841,368.716 171.474 C 368.400 172.107,368.116 173.558,368.085 174.700 C 367.613 191.752,367.999 194.751,370.633 194.530 L 371.785 194.434 371.895 190.677 C 371.988 187.496,372.125 186.800,372.789 186.136 C 373.338 185.587,373.548 184.931,373.489 183.943 C 373.231 179.598,373.524 175.432,374.088 175.432 C 374.557 175.432,374.664 174.792,374.664 171.977 C 374.664 168.778,374.721 168.522,375.432 168.522 C 376.126 168.522,376.200 168.266,376.200 165.835 C 376.200 163.702,376.318 163.148,376.775 163.148 C 377.209 163.148,377.351 162.684,377.351 161.273 C 377.351 159.721,377.483 159.364,378.119 159.198 C 378.791 159.022,378.887 158.674,378.887 156.402 C 378.887 154.975,378.773 153.920,378.634 154.059 C 378.495 154.198,378.159 154.127,377.887 153.901 C 377.358 153.462,376.277 153.858,376.221 154.511 C 376.203 154.722,375.697 155.067,375.098 155.278 C 374.498 155.489,373.556 156.180,373.004 156.814 L 372.001 157.965 371.944 150.672 C 371.912 146.660,371.911 143.236,371.941 143.062 C 371.971 142.888,371.831 142.847,371.629 142.972 C 370.866 143.443,370.667 142.073,370.755 136.961 C 370.838 132.148,370.780 131.624,370.085 130.929 C 369.407 130.251,369.317 129.598,369.268 124.982 C 369.217 120.253,369.148 119.776,368.483 119.565 C 367.828 119.358,367.754 118.926,367.754 115.307 C 367.754 112.550,367.625 111.359,367.345 111.532 C 367.119 111.672,366.841 111.428,366.727 110.992 C 366.613 110.555,366.193 110.094,365.793 109.968 C 365.351 109.827,365.067 109.383,365.067 108.831 C 365.067 108.332,364.798 107.655,364.469 107.326 C 364.140 106.997,363.830 106.250,363.780 105.667 C 363.717 104.933,363.487 104.623,363.035 104.660 C 362.630 104.693,362.380 104.436,362.380 103.988 C 362.380 103.589,362.121 103.263,361.804 103.263 C 361.423 103.263,361.228 102.882,361.228 102.137 C 361.228 101.349,360.998 100.938,360.461 100.768 C 360.038 100.634,359.693 100.190,359.693 99.782 C 359.693 99.374,359.442 99.040,359.134 99.040 C 358.800 99.040,358.475 98.501,358.324 97.697 C 358.180 96.927,357.844 96.353,357.539 96.353 C 357.186 96.353,357.006 95.900,357.006 95.010 C 357.006 94.271,356.876 93.686,356.718 93.711 C 355.869 93.846,355.470 93.586,355.470 92.898 C 355.470 92.472,355.214 92.131,354.894 92.131 C 354.507 92.131,354.319 91.743,354.319 90.943 C 354.319 90.078,354.110 89.701,353.551 89.555 C 353.129 89.444,352.783 89.115,352.783 88.823 C 352.783 88.531,352.524 88.292,352.207 88.292 C 351.809 88.292,351.631 87.892,351.631 86.993 C 351.631 86.017,351.441 85.644,350.864 85.493 C 350.303 85.347,350.096 84.970,350.096 84.093 C 350.096 83.381,349.862 82.804,349.520 82.672 C 349.203 82.551,348.944 82.211,348.944 81.917 C 348.944 81.623,348.599 81.382,348.177 81.382 C 347.478 81.382,347.141 80.388,347.363 78.983 C 347.388 78.824,347.161 78.695,346.859 78.695 C 346.556 78.695,346.199 78.349,346.065 77.927 C 345.931 77.505,345.574 77.159,345.272 77.159 C 344.899 77.159,344.722 76.726,344.722 75.816 C 344.722 74.728,344.575 74.472,343.954 74.472 C 343.332 74.472,343.186 74.216,343.186 73.129 C 343.186 72.190,343.013 71.785,342.610 71.785 C 342.290 71.785,342.035 71.444,342.035 71.017 C 342.035 70.505,341.779 70.250,341.267 70.250 C 340.569 70.250,340.232 69.256,340.454 67.850 C 340.479 67.692,340.159 67.562,339.743 67.562 C 339.229 67.562,339.058 67.378,339.209 66.987 C 339.362 66.587,339.182 66.411,338.621 66.411 C 337.952 66.411,337.812 66.178,337.812 65.067 C 337.812 64.129,337.638 63.724,337.236 63.724 C 336.853 63.724,336.660 63.340,336.660 62.575 C 336.660 61.843,336.382 61.253,335.893 60.947 C 335.470 60.684,335.125 60.270,335.125 60.029 C 335.125 59.788,334.779 59.500,334.357 59.390 C 333.798 59.244,333.589 58.866,333.589 58.001 C 333.589 57.202,333.401 56.814,333.013 56.814 C 332.694 56.814,332.438 56.473,332.438 56.046 C 332.438 55.534,332.182 55.278,331.670 55.278 C 330.970 55.278,330.651 54.463,330.868 53.230 C 330.899 53.053,330.586 52.820,330.172 52.712 C 329.723 52.595,329.503 52.299,329.626 51.978 C 329.763 51.621,329.560 51.440,329.024 51.440 C 328.471 51.440,328.215 51.197,328.215 50.672 C 328.215 50.250,328.085 49.924,327.927 49.949 C 327.096 50.081,326.727 49.842,326.933 49.305 C 327.087 48.905,326.892 48.636,326.345 48.493 C 325.896 48.375,325.528 48.040,325.528 47.748 C 325.528 47.456,325.280 47.217,324.978 47.217 C 324.675 47.217,324.324 46.890,324.197 46.491 C 324.071 46.091,323.610 45.671,323.173 45.557 C 322.737 45.443,322.494 45.165,322.633 44.939 C 322.781 44.700,322.558 44.530,322.096 44.530 C 321.561 44.530,321.305 44.281,321.305 43.762 C 321.305 43.340,321.065 42.994,320.770 42.994 C 320.476 42.994,320.136 42.734,320.013 42.415 C 319.891 42.096,319.657 41.858,319.492 41.885 C 318.260 42.087,317.466 41.770,317.466 41.075 C 317.466 40.563,317.210 40.307,316.699 40.307 C 316.276 40.307,315.931 40.077,315.931 39.796 C 315.931 39.515,315.505 39.057,314.984 38.779 C 314.464 38.500,314.136 38.114,314.255 37.920 C 314.375 37.727,314.239 37.601,313.954 37.640 C 312.751 37.805,312.092 37.582,312.092 37.008 C 312.092 36.672,311.759 36.309,311.351 36.203 C 310.943 36.096,310.517 35.767,310.403 35.471 C 310.289 35.173,309.677 34.933,309.033 34.933 C 307.992 34.933,307.678 34.609,307.824 33.685 C 307.849 33.527,307.265 33.397,306.526 33.397 C 305.588 33.397,305.182 33.224,305.182 32.821 C 305.182 32.505,304.857 32.246,304.459 32.246 C 304.052 32.246,303.646 31.900,303.529 31.454 C 303.416 31.019,303.093 30.694,302.813 30.732 C 301.397 30.924,300.609 30.687,300.821 30.134 C 301.001 29.665,300.645 29.559,298.889 29.559 C 296.993 29.559,296.737 29.467,296.737 28.791 C 296.737 28.174,296.481 28.023,295.438 28.023 C 294.462 28.023,294.090 27.832,293.939 27.255 C 293.785 26.669,293.415 26.488,292.370 26.488 C 291.313 26.488,291.053 26.357,291.224 25.912 C 291.404 25.442,291.048 25.336,289.293 25.336 C 287.647 25.336,287.140 25.202,287.140 24.767 C 287.140 24.105,285.613 23.636,284.283 23.890 C 283.617 24.018,283.309 23.870,283.175 23.358 C 283.019 22.760,282.598 22.649,280.503 22.649 C 278.339 22.649,277.991 22.549,277.816 21.881 C 277.635 21.189,277.292 21.113,274.357 21.113 C 271.816 21.113,271.051 20.987,270.878 20.537 C 270.689 20.044,269.044 19.962,259.321 19.962 C 249.500 19.962,247.985 20.039,247.985 20.537 M216.507 191.178 L 216.507 236.867 232.815 236.844 L 249.124 236.821 249.133 191.155 L 249.142 145.489 232.824 145.489 L 216.507 145.489 216.507 191.178 M250.928 145.745 C 250.787 145.886,250.672 150.464,250.672 155.918 L 250.672 165.835 261.612 165.835 L 272.553 165.835 272.553 178.119 L 272.553 190.403 262.860 190.438 C 257.529 190.458,252.649 190.501,252.015 190.534 L 250.864 190.595 250.785 200.889 L 250.707 211.183 251.553 211.115 C 252.018 211.078,254.429 211.067,256.910 211.090 L 261.420 211.132 261.420 212.320 C 261.420 213.185,261.629 213.562,262.188 213.708 C 262.610 213.819,262.977 214.234,263.004 214.632 C 263.094 215.986,263.148 216.151,263.593 216.426 C 263.838 216.577,264.097 217.219,264.169 217.852 C 264.262 218.668,264.494 218.986,264.971 218.949 C 265.612 218.898,265.880 219.873,265.660 221.453 C 265.612 221.791,265.806 221.901,266.190 221.753 C 266.671 221.569,266.795 221.802,266.795 222.889 C 266.795 223.933,266.976 224.304,267.562 224.457 C 268.139 224.608,268.330 224.981,268.330 225.956 C 268.330 226.855,268.508 227.255,268.906 227.255 C 269.289 227.255,269.482 227.639,269.482 228.404 C 269.482 229.136,269.760 229.726,270.250 230.032 C 270.726 230.329,271.017 230.927,271.017 231.606 C 271.017 232.379,271.244 232.761,271.785 232.902 C 272.362 233.053,272.553 233.426,272.553 234.402 C 272.553 235.300,272.730 235.701,273.129 235.701 C 273.445 235.701,273.704 235.960,273.704 236.276 C 273.704 236.780,275.861 236.852,290.806 236.852 L 307.907 236.852 307.820 234.933 C 307.748 233.364,307.605 233.013,307.033 233.013 C 306.490 233.013,306.334 232.714,306.334 231.670 C 306.334 230.731,306.160 230.326,305.758 230.326 C 305.356 230.326,305.182 229.921,305.182 228.983 C 305.182 228.244,305.053 227.660,304.894 227.685 C 303.942 227.835,303.647 227.517,303.647 226.337 C 303.647 225.533,303.426 224.950,303.071 224.813 C 302.754 224.692,302.495 224.328,302.495 224.004 C 302.495 223.672,302.161 223.417,301.727 223.417 C 301.106 223.417,300.960 223.161,300.960 222.073 C 300.960 221.135,300.786 220.729,300.384 220.729 C 299.844 220.729,299.626 220.054,299.786 218.876 C 299.824 218.596,299.499 218.273,299.064 218.160 C 298.461 218.002,298.273 217.643,298.273 216.654 C 298.273 215.611,298.121 215.355,297.505 215.355 C 296.882 215.355,296.737 215.099,296.737 213.999 C 296.737 213.149,296.523 212.562,296.161 212.423 C 295.827 212.295,295.585 211.720,295.585 211.055 C 295.585 210.232,295.369 209.852,294.818 209.708 C 294.395 209.598,294.050 209.268,294.050 208.976 C 294.050 208.684,293.791 208.445,293.474 208.445 C 293.074 208.445,292.898 208.043,292.898 207.130 C 292.898 206.200,292.701 205.763,292.226 205.639 C 291.587 205.472,291.587 205.461,292.226 205.419 C 292.596 205.394,292.898 205.115,292.898 204.798 C 292.898 204.482,293.157 204.223,293.474 204.223 C 293.794 204.223,294.050 203.881,294.050 203.455 C 294.050 202.943,294.306 202.687,294.818 202.687 C 295.325 202.687,295.585 202.431,295.585 201.931 C 295.585 201.417,295.770 201.246,296.161 201.397 C 296.561 201.550,296.737 201.370,296.737 200.809 C 296.737 200.256,296.980 200.000,297.505 200.000 C 297.931 200.000,298.273 199.744,298.273 199.424 C 298.273 199.107,298.504 198.848,298.787 198.848 C 299.070 198.848,299.502 198.407,299.748 197.867 C 299.994 197.327,300.367 196.992,300.577 197.122 C 300.788 197.252,300.960 197.100,300.960 196.786 C 300.960 196.471,301.305 196.103,301.727 195.969 C 302.150 195.835,302.495 195.478,302.495 195.176 C 302.495 194.873,302.754 194.626,303.071 194.626 C 303.388 194.626,303.626 194.496,303.601 194.338 C 303.467 193.489,303.727 193.090,304.415 193.090 C 305.170 193.090,305.182 192.834,305.182 177.699 C 305.182 162.631,305.166 162.304,304.415 162.107 C 303.992 161.997,303.647 161.679,303.647 161.400 C 303.647 161.122,302.970 160.513,302.144 160.049 C 301.223 159.532,300.717 159.003,300.839 158.686 C 300.959 158.373,300.633 158.014,300.016 157.780 C 299.454 157.566,299.095 157.227,299.219 157.027 C 299.343 156.826,299.095 156.729,298.667 156.812 C 298.239 156.894,297.889 156.799,297.889 156.600 C 297.889 156.401,297.630 156.238,297.313 156.238 C 296.996 156.238,296.737 155.979,296.737 155.662 C 296.737 155.345,296.478 155.086,296.161 155.086 C 295.832 155.086,295.585 154.741,295.585 154.278 C 295.585 153.695,295.414 153.534,294.974 153.703 C 294.566 153.860,294.296 153.682,294.162 153.169 C 294.051 152.745,293.721 152.399,293.429 152.399 C 293.137 152.399,292.898 152.054,292.898 151.631 C 292.898 151.205,292.642 150.864,292.322 150.864 C 292.006 150.864,291.401 150.518,290.979 150.096 C 290.557 149.674,290.211 149.069,290.211 148.752 C 290.211 148.433,289.870 148.177,289.443 148.177 C 289.017 148.177,288.676 147.921,288.676 147.601 C 288.676 147.284,288.437 147.025,288.145 147.025 C 287.853 147.025,287.523 146.679,287.413 146.257 C 287.210 145.482,251.690 144.983,250.928 145.745 M287.524 204.990 C 287.524 205.502,287.268 205.758,286.756 205.758 C 286.330 205.758,285.988 206.014,285.988 206.334 C 285.988 206.651,285.729 206.910,285.413 206.910 C 285.093 206.910,284.837 207.251,284.837 207.678 C 284.837 208.426,284.581 208.445,274.649 208.445 C 264.494 208.445,264.464 208.443,265.174 207.681 C 265.802 207.006,266.413 206.913,270.369 206.882 C 273.970 206.854,274.918 206.732,275.182 206.260 C 275.445 205.789,276.268 205.681,279.310 205.714 C 284.017 205.765,285.988 205.485,285.988 204.765 C 285.988 204.467,286.334 204.223,286.756 204.223 C 287.268 204.223,287.524 204.479,287.524 204.990 " stroke="none" fill="#fc043c" fill-rule="evenodd"></path><path id="path2" d="M93.282 145.973 C 93.282 146.310,92.980 146.664,92.610 146.760 C 91.981 146.925,91.982 146.939,92.622 146.980 C 93.316 147.026,93.960 146.039,93.522 145.601 C 93.390 145.469,93.282 145.637,93.282 145.973 M106.992 148.951 C 107.102 149.370,107.430 149.712,107.722 149.712 C 108.492 149.712,108.373 149.036,107.523 148.581 C 106.902 148.248,106.823 148.304,106.992 148.951 M93.666 150.081 C 93.666 150.279,93.895 150.580,94.175 150.749 C 94.455 150.918,94.795 151.358,94.931 151.727 C 95.066 152.097,95.399 152.386,95.669 152.369 C 96.055 152.345,96.057 152.297,95.681 152.145 C 95.417 152.039,95.202 151.745,95.202 151.493 C 95.202 151.241,94.856 150.739,94.434 150.377 C 94.012 150.015,93.666 149.882,93.666 150.081 M122.747 152.654 C 123.012 152.761,123.143 152.989,123.037 153.160 C 122.932 153.331,123.107 153.571,123.428 153.694 C 123.902 153.876,123.935 153.777,123.604 153.158 C 123.380 152.741,122.988 152.413,122.731 152.430 C 122.382 152.452,122.386 152.509,122.747 152.654 M127.438 154.115 C 127.702 154.434,128.057 154.608,128.226 154.504 C 128.395 154.399,128.621 154.492,128.729 154.710 C 128.837 154.928,128.886 154.902,128.838 154.653 C 128.790 154.404,128.348 154.051,127.854 153.868 C 127.082 153.582,127.024 153.617,127.438 154.115 M133.727 155.880 C 134.376 156.390,135.113 156.616,135.794 156.513 C 136.820 156.358,136.816 156.351,135.652 156.296 C 134.991 156.264,134.236 155.979,133.973 155.662 C 133.710 155.345,133.320 155.086,133.107 155.086 C 132.893 155.086,133.172 155.443,133.727 155.880 M179.655 181.081 C 180.393 181.165,181.214 181.515,181.478 181.861 C 181.914 182.432,181.958 182.433,181.958 181.871 C 181.958 181.532,182.174 181.167,182.438 181.060 C 182.702 180.954,181.881 180.881,180.614 180.898 C 179.262 180.916,178.866 180.992,179.655 181.081 M125.144 185.742 C 125.144 186.137,126.307 186.681,126.575 186.412 C 126.669 186.319,126.385 186.050,125.945 185.814 C 125.504 185.578,125.144 185.546,125.144 185.742 M195.393 193.830 C 195.393 194.025,195.091 194.248,194.722 194.325 C 194.143 194.445,194.159 194.495,194.836 194.681 C 195.414 194.840,195.637 194.709,195.676 194.186 C 195.706 193.794,195.654 193.474,195.562 193.474 C 195.469 193.474,195.393 193.634,195.393 193.830 M143.954 206.151 C 143.954 206.370,144.221 206.652,144.546 206.777 C 145.447 207.123,145.552 206.750,144.704 206.220 C 144.229 205.924,143.954 205.898,143.954 206.151 M177.596 207.486 C 177.502 207.732,177.660 207.933,177.947 207.933 C 178.235 207.933,178.547 207.732,178.642 207.486 C 178.736 207.239,178.578 207.038,178.291 207.038 C 178.003 207.038,177.691 207.239,177.596 207.486 M189.606 220.825 C 189.178 222.224,189.420 222.618,190.019 221.497 C 190.298 220.977,190.302 220.729,190.033 220.729 C 189.814 220.729,189.622 220.773,189.606 220.825 M173.001 225.208 C 172.860 225.349,172.750 225.737,172.756 226.072 C 172.766 226.582,172.832 226.570,173.164 226.000 C 173.382 225.626,173.748 225.436,173.979 225.579 C 174.231 225.735,174.289 225.661,174.125 225.395 C 173.818 224.898,173.383 224.825,173.001 225.208 " stroke="none" fill="#e098c8" fill-rule="evenodd"></path><path id="path3" d="" stroke="none" fill="#e03484" fill-rule="evenodd"></path><path id="path4" d="" stroke="none" fill="#e0383c" fill-rule="evenodd"></path></g></svg>